  0
SECTION
  2
HEADER
  9
$ACADVER
  1
AC1009
  9
$INSBASE
 10
0
 20
0
 30
0
  9
$EXTMIN
 10
0
 20
0
  9
$EXTMAX
 10
297
 20
210
  9
$LIMMIN
 10
0
 20
0
  9
$LIMMAX
 10
297
 20
210
  9
$LTSCALE
 40
1
  0
ENDSEC
  0
SECTION
  2
TABLES
  0
TABLE
  2
LTYPE
 70
     9
  0
LTYPE
  2
CONTINUOUS
 70
    64
  3
実線
 72
    65
 73
     0
 40
0.0
  0
LTYPE
  2
DASHED1
 70
    64
  3
--  --  --  --  --  --  --  --  
 72
    65
 73
     2
 40
2.5
 49
1.25
 49
-1.25
  0
LTYPE
  2
DASHED2
 70
    64
  3
----    ----    ----    ----    
 72
    65
 73
     2
 40
5.0
 49
2.5
 49
-2.5
  0
LTYPE
  2
DASHED3
 70
    64
  3
------  ------  ------  ------  
 72
    65
 73
     2
 40
5.0
 49
3.75
 49
-1.25
  0
LTYPE
  2
CENTER1
 70
    64
  3
----- - ----- - ----- - ----- - 
 72
    65
 73
     4
 40
10.0
 49
6.25
 49
-1.25
 49
1.25
 49
-1.25
  0
LTYPE
  2
CENTER2
 70
    64
  3
----------  --  ----------  --  
 72
    65
 73
     4
 40
20.0
 49
12.5
 49
-2.5
 49
2.5
 49
-2.5
  0
LTYPE
  2
PHANTOM1
 70
    64
  3
--- - - --- - - --- - - --- - - 
 72
    65
 73
     6
 40
10.0
 49
3.25
 49
-1.25
 49
1.25
 49
-1.25
 49
1.25
 49
-1.25
  0
LTYPE
  2
PHANTOM2
 70
    64
  3
--------  -  -  --------  -  -  
 72
    65
 73
     6
 40
20.0
 49
10.0
 49
-2.5
 49
1.25
 49
-2.5
 49
1.25
 49
-2.5
  0
LTYPE
  2
DOT
 70
    64
  3
-   -   -   -   -   -   -   -   
 72
    65
 73
     2
 40
2.5
 49
0.625
 49
-1.875
  0
LTYPE
  2
DUMMY
 70
    64
  3
ダミー
 72
    65
 73
     0
 40
0.0
  0
LTYPE
  2
RAND1
 70
    64
  3
ランダム線1
 72
    65
 73
     4
 40
10.0
 49
1.0
 49
-2.0
 49
3.0
 49
-4.0
  0
LTYPE
  2
RAND2
 70
    64
  3
ランダム線2
 72
    65
 73
     4
 40
14.0
 49
2.0
 49
-3.0
 49
4.0
 49
-5.0
  0
LTYPE
  2
RAND3
 70
    64
  3
ランダム線3
 72
    65
 73
     4
 40
18.0
 49
3.0
 49
-4.0
 49
5.0
 49
-6.0
  0
LTYPE
  2
RAND4
 70
    64
  3
ランダム線4
 72
    65
 73
     4
 40
22.0
 49
4.0
 49
-5.0
 49
6.0
 49
-7.0
  0
LTYPE
  2
RAND5
 70
    64
  3
ランダム線5
 72
    65
 73
     4
 40
26.0
 49
5.0
 49
-6.0
 49
7.0
 49
-8.0
  0
LTYPE
  2
LONG1
 70
    64
  3
----------  --  ----------  --  
 72
    65
 73
     4
 40
40.0
 49
32.5
 49
-2.5
 49
2.5
 49
-2.5
  0
LTYPE
  2
LONG2
 70
    64
  3
--------  -  -  --------  -  -  
 72
    65
 73
     6
 40
40.0
 49
30.0
 49
-2.5
 49
1.25
 49
-2.5
 49
1.25
 49
-2.5
  0
LTYPE
  2
LONG3
 70
    64
  3
+++++++++++++++..+++++++++++++++
 72
    65
 73
     2
 40
40.0
 49
37.5
 49
-2.5
  0
LTYPE
  2
LONG4
 70
    64
  3
+++++++++++++++..+++++++++++++++
 72
    65
 73
     2
 40
80.0
 49
75.0
 49
-5.0
  0
LTYPE
  2
LONG5
 70
    64
  3
----------  --  ----------  --  
 72
    65
 73
     4
 40
60.0
 49
37.5
 49
-7.5
 49
7.5
 49
-7.5
  0
LTYPE
  2
dashed
 70
   64
  3
-------   -------------   ------
 72
   65
 73
    2
 40
7.5
 49
6
 49
-1.5
  0
LTYPE
  2
dashed_spaced
 70
   64
  3
----        --------        ----
 72
   65
 73
    2
 40
12
 49
6
 49
-6
  0
LTYPE
  2
long_dashed_dotted
 70
   64
  3
------------- --- --------------
 72
   65
 73
    4
 40
15.25
 49
12
 49
-1.5
 49
0.25
 49
-1.5
  0
LTYPE
  2
long_dashed_double-dotted
 70
   64
  3
----------- --- --- ------------
 72
   65
 73
    6
 40
17
 49
12
 49
-1.5
 49
0.25
 49
-1.5
 49
0.25
 49
-1.5
  0
LTYPE
  2
long_dashed_triplicate-dotted
 70
   64
  3
--------- --- --- --- ----------
 72
   65
 73
    8
 40
18.75
 49
12
 49
-1.5
 49
0.25
 49
-1.5
 49
0.25
 49
-1.5
 49
0.25
 49
-1.5
  0
LTYPE
  2
dotted
 70
   64
  3
   -       -       -       -    
 72
   65
 73
    2
 40
1.75
 49
0.25
 49
-1.5
  0
LTYPE
  2
chain
 70
   64
  3
-------------- -- --------------
 72
   65
 73
    4
 40
18.5
 49
12
 49
-1.5
 49
3.5
 49
-1.5
  0
LTYPE
  2
chain_double_dash
 70
   64
  3
------------ -- -- -------------
 72
   65
 73
    6
 40
23.5
 49
12
 49
-1.5
 49
3.5
 49
-1.5
 49
3.5
 49
-1.5
  0
LTYPE
  2
dashed_dotted
 70
   64
  3
-----------     -     ----------
 72
   65
 73
    4
 40
9.25
 49
6
 49
-1.5
 49
0.25
 49
-1.5
  0
LTYPE
  2
double-dashed_dotted
 70
   64
  3
------   -----------   -   -----
 72
   65
 73
    6
 40
16.75
 49
6
 49
-1.5
 49
6
 49
-1.5
 49
0.25
 49
-1.5
  0
LTYPE
  2
dashed_double-dotted
 70
   64
  3
---------    -    -    ---------
 72
   65
 73
    6
 40
11
 49
6
 49
-1.5
 49
0.25
 49
-1.5
 49
0.25
 49
-1.5
  0
LTYPE
  2
double-dashed_double-dotted
 70
   64
  3
-----   ---------   -   -   ----
 72
   65
 73
    8
 40
18.5
 49
6
 49
-1.5
 49
6
 49
-1.5
 49
0.25
 49
-1.5
 49
0.25
 49
-1.5
  0
LTYPE
  2
dashed_triplicate-dotted
 70
   64
  3
-------    -    -    -    ------
 72
   65
 73
    8
 40
12.75
 49
6
 49
-1.5
 49
0.25
 49
-1.5
 49
0.25
 49
-1.5
 49
0.25
 49
-1.5
  0
LTYPE
  2
double-dashed_triplicate-dotted
 70
   64
  3
-----  ---------  -  -  -  -----
 72
   65
 73
   10
 40
20.25
 49
6
 49
-1.5
 49
6
 49
-1.5
 49
0.25
 49
-1.5
 49
0.25
 49
-1.5
 49
0.25
 49
-1.5
  0
LTYPE
  2
undefined
 70
   64
  3
--------------------------------
 72
   65
 73
    0
 40
0
  0
LTYPE
  2
Amconstr
 70
   64
  3
-------- --------------- -------
 72
   65
 73
    2
 40
9999.0100000000002
 49
9999
 49
-0.01
  0
LTYPE
  2
AM_ISO08W050x2
 70
   64
  3
-----------   -----   ----------
 72
   65
 73
    4
 40
9
 49
6
 49
-0.75
 49
1.5
 49
-0.75
  0
LTYPE
  2
AM_ISO02W050x2
 70
   64
  3
-------   -------------   ------
 72
   65
 73
    2
 40
3.75
 49
3
 49
-0.75
  0
LTYPE
  2
Amzigzag
 70
   64
  3
-               -               
 72
   65
 73
    2
 40
11.000099999999999
 49
0.0001
 49
-11
  0
LTYPE
  2
HIDDEN
 70
   64
  3
------     -----------     -----
 72
   65
 73
    2
 40
0.375
 49
0.25
 49
-0.125
  0
LTYPE
  2
CENTER
 70
   64
  3
----------    ----    ----------
 72
   65
 73
    4
 40
2
 49
1.25
 49
-0.25
 49
0.25
 49
-0.25
  0
LTYPE
  2
PHANTOM2_23
 70
   64
  3
---------   ---   ---   --------
 72
   65
 73
    6
 40
1.25
 49
0.625
 49
-0.125
 49
0.125
 49
-0.125
 49
0.125
 49
-0.125
  0
LTYPE
  2
CENTER2_24
 70
   64
  3
----------    ----    ----------
 72
   65
 73
    4
 40
1.125
 49
0.75
 49
-0.125
 49
0.125
 49
-0.125
  0
LTYPE
  2
HIDDEN2
 70
   64
  3
------     -----------     -----
 72
   65
 73
    2
 40
0.1875
 49
0.125
 49
-0.0625
  0
LTYPE
  2
Amzigzag2
 70
   64
  3
-               -               
 72
   65
 73
    2
 40
0.4401000000000001
 49
0.0001
 49
-0.4400000000000001
  0
LTYPE
  2
ACANSTGB
 70
   64
  3
------    ----    ----    ------
 72
   65
 73
    6
 40
0.3543307086599999
 49
0.15748031496
 49
-0.03937007874
 49
0.03937007874
 49
-0.03937007874
 49
0.03937007874
 49
-0.03937007874
  0
LTYPE
  2
ACANSTGL
 70
   64
  3
------     -----------     -----
 72
   65
 73
    2
 40
0.1181102362199999
 49
0.07874015748
 49
-0.03937007874
  0
LTYPE
  2
ACISOWELD
 70
   64
  3
------     -----------     -----
 72
   65
 73
    2
 40
3
 49
2
 49
-1
  0
LTYPE
  2
ACISOTGB
 70
   64
  3
------    ----    ----    ------
 72
   65
 73
    6
 40
9
 49
4
 49
-1
 49
1
 49
-1
 49
1
 49
-1
  0
LTYPE
  2
gen3
 70
   64
  3
------    ------------    ------
 72
   65
 73
    2
 40
6.25
 49
4.75
 49
-1.5
  0
LTYPE
  2
gen7
 70
   64
  3
------------   --   ------------
 72
   65
 73
    4
 40
13.75
 49
9.75
 49
-1.5
 49
1
 49
-1.5
  0
ENDTAB
  0
TABLE
  2
STYLE
  5
3
100
AcDbSymbolTable
 70
     1
  0
STYLE
  5
10
100
AcDbSymbolTableRecord
100
AcDbTextStyleTableRecord
  2
STANDARD
 70
     0
 40
0.0
 41
1.0
 50
0.0
 71
     0
 42
0.2
  3
txt
  4
bigfont.shx
  0
STYLE
  5
26
100
AcDbSymbolTableRecord
100
AcDbTextStyleTableRecord
  2
TATEGAKI
 70
    68
 40
0.0
 41
1.0
 50
0.0
 71
     0
 42
1.0
  3
txt
  4
bigfont.shx
  0
ENDTAB
  0
TABLE
  2
LAYER
 70
   14
  0
LAYER
  2
_0-0_0
 70
   64
 62
    7
  6
CONTINUOUS
  0
LAYER
  2
_0-2_Defpoints
 70
   64
 62
    7
  6
CONTINUOUS
  0
LAYER
  2
_0-6_TK1
 70
   64
 62
    7
  6
CONTINUOUS
  0
LAYER
  2
_0-8_TK3
 70
   64
 62
    7
  6
CONTINUOUS
  0
LAYER
  2
_0-a_TK20
 70
   64
 62
    7
  6
CONTINUOUS
  0
LAYER
  2
_1-9_________
 70
   64
 62
    7
  6
CONTINUOUS
  0
LAYER
  2
_1-c_AM_7
 70
   64
 62
    7
  6
CONTINUOUS
  0
LAYER
  2
_3-0_
 70
   64
 62
    7
  6
CONTINUOUS
  0
LAYER
  2
_3-8_
 70
   64
 62
    7
  6
CONTINUOUS
  0
LAYER
  2
_8-0_
 70
   64
 62
    7
  6
CONTINUOUS
  0
LAYER
  2
_8-4_
 70
   64
 62
    7
  6
CONTINUOUS
  0
LAYER
  2
_8-8_
 70
   64
 62
    7
  6
CONTINUOUS
  0
LAYER
  2
_8-e_
 70
   64
 62
    7
  6
CONTINUOUS
  0
LAYER
  2
ADD_LINE
 70
   64
 62
    7
  6
CONTINUOUS
  0
ENDTAB
  0
ENDSEC
  0
SECTION
  2
BLOCKS
  0
ENDSEC
  0
SECTION
  2
ENTITIES
  0
TEXT
  8
_0-6_TK1
 62
    7
 10
219.0691056910569
 20
118.17073170731707
 40
3
 41
1
 50
0
  1
1, φ6.5,  1,     -
  0
LINE
  8
_8-0_
  6
CONTINUOUS
 62
    3
 10
170.21474299341269
 20
117.41670437577359
 11
169.21474299341269
 21
117.41670437577359
  0
LINE
  8
_8-0_
  6
CONTINUOUS
 62
    3
 10
169.21474299341269
 20
117.41670437577359
 11
169.21474299341269
 21
102.98729261106775
  0
LINE
  8
_8-0_
  6
CONTINUOUS
 62
    3
 10
170.21474299341269
 20
117.41670437577359
 11
170.21474299341269
 21
102.98729261106775
  0
ARC
  8
_8-0_
  6
CONTINUOUS
 62
    3
 10
169.71474299341181
 20
102.98729261106775
 40
13
 50
92.204227503971978
 51
112.61986494803117
  0
LINE
  8
_8-0_
  6
CONTINUOUS
 62
    3
 10
164.71474299341275
 20
90.987292611066735
 11
164.71474299341275
 21
114.98729261106679
  0
ARC
  8
_8-0_
  6
CONTINUOUS
 62
    3
 10
169.71474299341181
 20
102.98729261106775
 40
13
 50
67.380135051971564
 51
87.795772496023943
  0
LINE
  8
_8-0_
  6
CONTINUOUS
 62
    3
 10
174.71474299341181
 20
90.987292611066735
 11
174.71474299341181
 21
114.98729261106679
  0
LINE
  8
_8-0_
  6
CONTINUOUS
 62
    3
 10
170.21474299341269
 20
102.98729261106775
 11
169.21474299341269
 21
102.98729261106775
  0
LINE
  8
_8-8_
  6
CENTER1
 62
    4
 10
187.85835151722145
 20
102.98729261106775
 11
151.35935513638216
 21
102.98729261106775
  0
LINE
  8
_3-8_
  6
CONTINUOUS
 62
    4
 10
140.71474299341184
 20
116.98729261106767
 11
129.42664198413672
 21
110.47010445472298
  0
LINE
  8
_1-c_AM_7
  6
chain
 62
    4
 10
140.71474299341184
 20
78.987292611067701
 11
140.71474299341184
 21
154.98729261106763
  0
ARC
  8
_1-9_________
  6
CONTINUOUS
 62
    7
 10
186.71474299341176
 20
147.98729261106774
 40
4
 50
0
 51
90
  0
LINE
  8
_1-9_________
  6
CONTINUOUS
 62
    7
 10
190.71474299341176
 20
85.987292611067729
 11
190.71474299341176
 21
147.98729261106774
  0
LINE
  8
_1-9_________
  6
CONTINUOUS
 62
    7
 10
94.714742993411746
 20
151.9872926110678
 11
186.71474299341176
 21
151.9872926110678
  0
LINE
  8
_1-9_________
  6
CONTINUOUS
 62
    7
 10
94.714742993411817
 20
81.987292611067815
 11
186.71474299341176
 21
81.987292611067815
  0
ARC
  8
_1-9_________
  6
CONTINUOUS
 62
    7
 10
186.71474299341176
 20
85.987292611067729
 40
4
 50
270
 51
0
  0
LINE
  8
_1-c_AM_7
  6
chain
 62
    4
 10
196.71474299341176
 20
116.98729261106781
 11
84.714742993411817
 21
116.98729261106781
  0
ARC
  8
_1-9_________
  6
CONTINUOUS
 62
    7
 10
94.714742993411746
 20
147.98729261106774
 40
4
 50
90
 51
180
  0
LINE
  8
_1-9_________
  6
CONTINUOUS
 62
    7
 10
90.714742993411874
 20
85.987292611067729
 11
90.714742993411874
 21
147.98729261106774
  0
ARC
  8
_1-9_________
  6
CONTINUOUS
 62
    7
 10
94.714742993411817
 20
85.987292611067729
 40
4
 50
180
 51
270
  0
LINE
  8
_8-0_
  6
CONTINUOUS
 62
    3
 10
112.21474299341267
 20
102.98729261106775
 11
111.21474299341267
 21
102.98729261106775
  0
LINE
  8
_8-0_
  6
CONTINUOUS
 62
    3
 10
116.71474299341178
 20
90.987292611066735
 11
116.71474299341178
 21
114.98729261106679
  0
ARC
  8
_8-0_
  6
CONTINUOUS
 62
    3
 10
111.71474299341178
 20
102.98729261106775
 40
14.500000000000001
 50
270
 51
90
  0
ARC
  8
_8-0_
  6
CONTINUOUS
 62
    3
 10
111.71474299341178
 20
102.98729261106775
 40
13
 50
270
 51
292.6198649480284
  0
ARC
  8
_8-0_
  6
CONTINUOUS
 62
    3
 10
111.71474299341178
 20
102.98729261106775
 40
13
 50
67.380135051971564
 51
87.795772496023943
  0
ARC
  8
_8-0_
  6
CONTINUOUS
 62
    3
 10
111.71474299341178
 20
102.98729261106775
 40
13.882352941176581
 50
308.88598952196218
 51
51.114010478046566
  0
LINE
  8
_8-0_
  6
CONTINUOUS
 62
    3
 10
106.71474299341269
 20
90.987292611066735
 11
106.71474299341269
 21
114.98729261106679
  0
ARC
  8
_8-0_
  6
CONTINUOUS
 62
    3
 10
111.71474299341178
 20
102.98729261106775
 40
14.500000000000001
 50
90
 51
270
  0
ARC
  8
_8-0_
  6
CONTINUOUS
 62
    3
 10
111.71474299341178
 20
102.98729261106775
 40
13
 50
247.38013505196877
 51
270
  0
ARC
  8
_8-0_
  6
CONTINUOUS
 62
    3
 10
111.71474299341178
 20
102.98729261106775
 40
13
 50
92.204227503971978
 51
112.61986494803117
  0
ARC
  8
_8-0_
  6
CONTINUOUS
 62
    3
 10
111.71474299341178
 20
102.98729261106775
 40
13.882352941176581
 50
128.88598952191804
 51
231.11401047799748
  0
ARC
  8
_8-0_
  6
CONTINUOUS
 62
    3
 10
111.71474299341085
 20
77.016459277770266
 40
12.278186274473661
 50
79.915097861626151
 51
100.08490213837379
  0
ARC
  8
_8-0_
  6
CONTINUOUS
 62
    3
 10
111.71474299341633
 20
101.19342006204466
 40
12.278186274505991
 50
259.91509786162617
 51
280.08490213836921
  0
LINE
  8
_8-0_
  6
CONTINUOUS
 62
    3
 10
112.21474299341267
 20
117.41670437577359
 11
112.21474299341267
 21
102.98729261106775
  0
LINE
  8
_8-0_
  6
CONTINUOUS
 62
    3
 10
111.21474299341267
 20
117.41670437577359
 11
111.21474299341267
 21
102.98729261106775
  0
LINE
  8
_8-0_
  6
CONTINUOUS
 62
    3
 10
112.21474299341267
 20
117.41670437577359
 11
111.21474299341267
 21
117.41670437577359
  0
ARC
  8
_8-0_
  6
CONTINUOUS
 62
    3
 10
169.71474299341636
 20
101.19342006204466
 40
12.278186274505991
 50
259.91509786162617
 51
280.08490213836921
  0
ARC
  8
_8-0_
  6
CONTINUOUS
 62
    3
 10
169.71474299341087
 20
77.016459277770266
 40
12.278186274473661
 50
79.915097861626151
 51
100.08490213837379
  0
ARC
  8
_8-0_
  6
CONTINUOUS
 62
    3
 10
169.71474299341181
 20
102.98729261106775
 40
13.882352941176581
 50
128.88598952191804
 51
231.11401047799748
  0
ARC
  8
_8-0_
  6
CONTINUOUS
 62
    3
 10
169.71474299341181
 20
102.98729261106775
 40
13
 50
247.38013505196877
 51
270
  0
ARC
  8
_8-0_
  6
CONTINUOUS
 62
    3
 10
169.71474299341181
 20
102.98729261106775
 40
14.500000000000001
 50
90
 51
270
  0
ARC
  8
_8-0_
  6
CONTINUOUS
 62
    3
 10
169.71474299341181
 20
102.98729261106775
 40
13.882352941176581
 50
308.88598952196218
 51
51.114010478046566
  0
ARC
  8
_8-0_
  6
CONTINUOUS
 62
    3
 10
169.71474299341181
 20
102.98729261106775
 40
13
 50
270
 51
292.6198649480284
  0
ARC
  8
_8-0_
  6
CONTINUOUS
 62
    3
 10
169.71474299341181
 20
102.98729261106775
 40
14.500000000000001
 50
270
 51
90
  0
LINE
  8
_8-0_
  6
CONTINUOUS
 62
    3
 10
141.21474299340911
 20
116.98729261106767
 11
140.21474299340908
 21
116.98729261106767
  0
CIRCLE
  8
_8-0_
  6
CONTINUOUS
 62
    3
 10
140.71474299341184
 20
116.98729261106767
 40
11
  0
ARC
  8
_8-0_
  6
CONTINUOUS
 62
    3
 10
140.71474299341184
 20
116.98729261106767
 40
9.75
 50
270
 51
300.85188598605321
  0
LINE
  8
_8-0_
  6
CONTINUOUS
 62
    3
 10
145.71474299340997
 20
108.616958089676
 11
145.71474299340997
 21
116.98729261106767
  0
ARC
  8
_8-0_
  6
CONTINUOUS
 62
    3
 10
140.71474299341184
 20
116.98729261106767
 40
10.5
 50
319.49427460003869
 51
0
  0
LINE
  8
_8-0_
  6
CONTINUOUS
 62
    3
 10
135.71474299341184
 20
108.616958089676
 11
135.71474299341184
 21
116.98729261106767
  0
ARC
  8
_8-0_
  6
CONTINUOUS
 62
    3
 10
140.71474299341184
 20
116.98729261106767
 40
9.75
 50
239.14811401394675
 51
270
  0
ARC
  8
_8-0_
  6
CONTINUOUS
 62
    3
 10
140.71474299341184
 20
116.98729261106767
 40
10.5
 50
180
 51
220.50572539996124
  0
LINE
  8
_8-0_
  6
CONTINUOUS
 62
    3
 10
145.71474299340997
 20
125.35762713246204
 11
145.71474299340997
 21
116.98729261106767
  0
ARC
  8
_8-0_
  6
CONTINUOUS
 62
    3
 10
140.71474299341184
 20
116.98729261106767
 40
9.7500000000000035
 50
59.148114013946816
 51
87.060465513565603
  0
ARC
  8
_8-0_
  6
CONTINUOUS
 62
    3
 10
140.71474299341184
 20
116.98729261106767
 40
10.5
 50
0
 51
40.505725399961193
  0
LINE
  8
_8-0_
  6
CONTINUOUS
 62
    3
 10
135.71474299341184
 20
125.35762713246204
 11
135.71474299341184
 21
116.98729261106767
  0
ARC
  8
_8-0_
  6
CONTINUOUS
 62
    3
 10
140.71474299341184
 20
116.98729261106767
 40
9.7500000000000035
 50
92.939534486434297
 51
120.8518859860532
  0
ARC
  8
_8-0_
  6
CONTINUOUS
 62
    3
 10
140.71474299341184
 20
116.98729261106767
 40
10.5
 50
139.49427460003869
 51
180
  0
LINE
  8
_8-0_
  6
CONTINUOUS
 62
    3
 10
140.21474299340908
 20
127.92062594440115
 11
141.21474299340911
 21
127.92062594440115
  0
LINE
  8
_8-0_
  6
CONTINUOUS
 62
    3
 10
141.21474299340911
 20
127.92062594440115
 11
141.21474299340911
 21
116.98729261106767
  0
LINE
  8
_8-0_
  6
CONTINUOUS
 62
    3
 10
140.21474299340908
 20
127.92062594440115
 11
140.21474299340908
 21
116.98729261106767
  0
ARC
  8
_8-0_
  6
CONTINUOUS
 62
    3
 10
140.7147429934082
 20
117.89145927776037
 40
11.47916666669534
 50
260.47271661854546
 51
279.52728338145448
  0
ARC
  8
_8-0_
  6
CONTINUOUS
 62
    3
 10
140.71474299340999
 20
95.24979261110208
 40
11.4791666666333
 50
80.472716618545504
 51
99.52728338145458
  0
LINE
  8
_8-0_
  6
CENTER1
 62
    4
 10
140.71474299341184
 20
116.8210267537383
 11
140.71474299341184
 21
116.9182650920212
  0
LINE
  8
_8-0_
  6
CENTER1
 62
    4
 10
140.71474299341184
 20
116.9182650920212
 11
140.71474299341184
 21
118.69541371264934
  0
ARC
  8
_8-0_
  6
CONTINUOUS
 62
    3
 10
186.71474299341176
 20
147.98729261106774
 40
4
 50
0
 51
90
  0
LINE
  8
_8-0_
  6
CONTINUOUS
 62
    3
 10
190.71474299341181
 20
85.987292611067587
 11
190.71474299341181
 21
147.98729261106774
  0
ARC
  8
_8-0_
  6
CONTINUOUS
 62
    3
 10
186.71474299341176
 20
85.987292611067587
 40
4
 50
270
 51
0
  0
LINE
  8
_8-0_
  6
CONTINUOUS
 62
    3
 10
94.714742993411817
 20
151.98729261106765
 11
186.71474299341176
 21
151.98729261106765
  0
ARC
  8
_8-0_
  6
CONTINUOUS
 62
    3
 10
94.714742993411817
 20
147.98729261106774
 40
4
 50
90
 51
180
  0
LINE
  8
_8-0_
  6
CONTINUOUS
 62
    3
 10
94.714742993411817
 20
81.987292611067672
 11
186.71474299341176
 21
81.987292611067672
  0
LINE
  8
_8-0_
  6
CONTINUOUS
 62
    3
 10
90.714742993411832
 20
85.987292611067587
 11
90.714742993411832
 21
147.98729261106774
  0
ARC
  8
_8-0_
  6
CONTINUOUS
 62
    3
 10
94.714742993411817
 20
85.987292611067587
 40
4
 50
180
 51
270
  0
LINE
  8
_8-8_
  6
CENTER1
 62
    4
 10
111.71474299341178
 20
123.22413271161597
 11
111.71474299341178
 21
81.416843685401445
  0
LINE
  8
_8-8_
  6
CENTER1
 62
    4
 10
93.864484325229398
 20
102.98729261106775
 11
128.04082126289608
 21
102.98729261106775
  0
LINE
  8
_8-8_
  6
CENTER1
 62
    4
 10
169.71474299341181
 20
123.22413271161597
 11
169.71474299341181
 21
81.416843685401445
  0
LINE
  8
_8-8_
  6
CENTER1
 62
    4
 10
140.71474299341184
 20
128.98459875602773
 11
140.71474299341184
 21
103.90143187736317
  0
LINE
  8
_8-8_
  6
CENTER1
 62
    4
 10
153.36422457918814
 20
116.98729261106767
 11
128.33173076492485
 21
116.98729261106767
  0
LINE
  8
_8-0_
  6
CENTER1
 62
    4
 10
140.71474299341184
 20
134.98729286106771
 11
140.71474299341184
 21
145.54845387533538
  0
ARC
  8
_8-0_
  6
CONTINUOUS
 62
    3
 10
140.71474299341184
 20
139.98729286106771
 40
1.6000000000000003
 50
180
 51
218.61453600000001
  0
ARC
  8
_8-0_
  6
CONTINUOUS
 62
    3
 10
140.71474299341184
 20
139.98729286106771
 40
2.1
 50
308.2376729999998
 51
231.76232700000002
  0
ARC
  8
_8-0_
  6
CONTINUOUS
 62
    3
 10
140.7135549934118
 20
139.63084186106772
 40
1.2091709999999991
 50
89.943715000000011
 51
134.53124700000003
  0
ARC
  8
_8-0_
  6
CONTINUOUS
 62
    3
 10
140.69659599341184
 20
139.65518786106758
 40
1.179931999999999
 50
134.773257
 51
179.02596099999982
  0
ARC
  8
_8-0_
  6
CONTINUOUS
 62
    3
 10
140.71593099341185
 20
139.63084186106772
 40
1.2091709999999991
 50
45.468752999999978
 51
90.056284999999988
  0
ARC
  8
_8-0_
  6
CONTINUOUS
 62
    3
 10
140.73288999341178
 20
139.65518786106758
 40
1.179931999999999
 50
0.9740389999998035
 51
45.226742999999991
  0
ARC
  8
_8-0_
  6
CONTINUOUS
 62
    3
 10
140.66855799341183
 20
137.69089886106758
 40
1.2993639999999992
 50
176.89015899999992
 51
217.36157199999996
  0
ARC
  8
_8-0_
  6
CONTINUOUS
 62
    3
 10
140.71208099341185
 20
137.7292578610677
 40
1.357240999999999
 50
217.53367799999998
 51
270.11300099999999
  0
ARC
  8
_8-0_
  6
CONTINUOUS
 62
    3
 10
140.71740599341183
 20
137.7292578610677
 40
1.357240999999999
 50
269.886999
 51
322.46632199999999
  0
ARC
  8
_8-0_
  6
CONTINUOUS
 62
    3
 10
140.76092799341182
 20
137.69089886106758
 40
1.2993639999999992
 50
322.63842799999997
 51
3.1098409999998466
  0
ARC
  8
_8-0_
  6
CONTINUOUS
 62
    3
 10
140.71474299341184
 20
139.98729286106771
 40
3.0000000000000004
 50
180
 51
244.82232799999997
  0
ARC
  8
_8-0_
  6
CONTINUOUS
 62
    3
 10
140.71474299341184
 20
139.98729286106771
 40
4
 50
180
 51
0
  0
ARC
  8
_8-0_
  6
CONTINUOUS
 62
    3
 10
140.71474299341184
 20
139.98729286106771
 40
3.0000000000000004
 50
0
 51
82.337743999999986
  0
ARC
  8
_8-0_
  6
CONTINUOUS
 62
    3
 10
140.71474299341184
 20
139.98729286106771
 40
2.7000000000000001
 50
81.480375999999978
 51
98.519624000000021
  0
ARC
  8
_8-0_
  6
CONTINUOUS
 62
    3
 10
140.71474299341184
 20
139.98729286106771
 40
3.0000000000000004
 50
295.17767199999991
 51
0
  0
ARC
  8
_8-0_
  6
CONTINUOUS
 62
    3
 10
140.71474299341184
 20
139.98729286106771
 40
3.0000000000000004
 50
97.662255999999999
 51
180
  0
ARC
  8
_8-0_
  6
CONTINUOUS
 62
    3
 10
140.71474299341184
 20
139.98729286106771
 40
4
 50
90
 51
180
  0
ARC
  8
_8-0_
  6
CONTINUOUS
 62
    3
 10
140.71474299341184
 20
139.98729286106771
 40
3.0000000000000004
 50
82.337744
 51
97.662256000000027
  0
ARC
  8
_8-0_
  6
CONTINUOUS
 62
    3
 10
140.71474299341184
 20
139.98729286106771
 40
4
 50
0
 51
90
  0
ARC
  8
_8-0_
  6
CONTINUOUS
 62
    3
 10
140.71474299341184
 20
139.98729286106771
 40
1.6000000000000003
 50
321.38546399999978
 51
180
  0
ARC
  8
_8-0_
  6
CONTINUOUS
 62
    3
 10
140.71474299341184
 20
139.98729286106771
 40
2.6
 50
98.849882999999934
 51
238.88329800000005
  0
ARC
  8
_8-0_
  6
CONTINUOUS
 62
    3
 10
140.71474299341184
 20
139.98729286106771
 40
2.6
 50
301.11670199999991
 51
81.150116999999909
  0
LINE
  8
_8-0_
  6
CONTINUOUS
 62
    3
 10
141.91265199341182
 20
139.67524586106765
 11
142.05837899341184
 21
137.76138986106775
  0
LINE
  8
_8-0_
  6
CONTINUOUS
 62
    3
 10
139.37110799341184
 20
137.76138986106775
 11
139.51683399341186
 21
139.67524586106765
  0
LINE
  8
_8-0_
  6
CONTINUOUS
 62
    3
 10
140.71474299341184
 20
135.36848986106767
 11
136.71474299341184
 21
137.67789186106773
  0
LINE
  8
_8-0_
  6
CONTINUOUS
 62
    3
 10
136.71474299341184
 20
137.67789186106773
 11
136.71474299341184
 21
139.98729286106771
  0
LINE
  8
_8-0_
  6
CONTINUOUS
 62
    3
 10
136.71474299341184
 20
142.29669386106769
 11
140.71474299341184
 21
144.60609486106778
  0
LINE
  8
_8-0_
  6
CONTINUOUS
 62
    3
 10
136.71474299341184
 20
139.98729286106771
 11
136.71474299341184
 21
142.29669386106769
  0
LINE
  8
_8-0_
  6
CONTINUOUS
 62
    3
 10
144.71474299341181
 20
137.67789186106773
 11
140.71474299341184
 21
135.36848986106767
  0
LINE
  8
_8-0_
  6
CONTINUOUS
 62
    3
 10
140.71474299341184
 20
144.60609486106778
 11
144.71474299341181
 21
142.29669386106769
  0
LINE
  8
_8-0_
  6
CONTINUOUS
 62
    3
 10
140.31474299341184
 20
142.96050586106775
 11
140.31474299341184
 21
142.48729286106771
  0
LINE
  8
_8-0_
  6
CONTINUOUS
 62
    3
 10
141.11474299341182
 20
142.48729286106771
 11
141.11474299341182
 21
142.96050586106775
  0
LINE
  8
_8-0_
  6
CONTINUOUS
 62
    3
 10
141.11474299341182
 20
142.48729286106771
 11
140.31474299341184
 21
142.48729286106771
  0
LINE
  8
_8-0_
  6
CONTINUOUS
 62
    3
 10
144.71474299341181
 20
139.98729286106771
 11
144.71474299341181
 21
137.67789186106773
  0
LINE
  8
_8-0_
  6
CONTINUOUS
 62
    3
 10
144.71474299341181
 20
142.29669386106769
 11
144.71474299341181
 21
139.98729286106771
  0
LINE
  8
_8-8_
  6
CENTER1
 62
    4
 10
135.59475809721547
 20
139.98729309106624
 11
146.69035202288051
 21
139.98729205085442
  0
CIRCLE
  8
_8-0_
  6
CONTINUOUS
 62
    3
 10
173.71474299341178
 20
138.98729261106768
 40
6.5
  0
CIRCLE
  8
_8-0_
  6
CONTINUOUS
 62
    3
 10
173.71474299341178
 20
138.98729261106768
 40
4.7999999999999998
  0
CIRCLE
  8
_8-0_
  6
CONTINUOUS
 62
    3
 10
173.71474299341178
 20
138.98729261106768
 40
4.25
  0
LINE
  8
_8-8_
  6
CENTER1
 62
    4
 10
173.71474299341178
 20
147.31185075439458
 11
173.71474299341178
 21
130.86270217054752
  0
LINE
  8
_8-8_
  6
CENTER1
 62
    4
 10
165.61589687316006
 20
138.98729261106768
 11
181.62139622134327
 21
138.98729261106768
  0
CIRCLE
  8
_8-0_
  6
CONTINUOUS
 62
    3
 10
107.71474299341178
 20
138.98729261106768
 40
6.5
  0
CIRCLE
  8
_8-0_
  6
CONTINUOUS
 62
    3
 10
107.71474299341178
 20
138.98729261106768
 40
4.7999999999999998
  0
CIRCLE
  8
_8-0_
  6
CONTINUOUS
 62
    3
 10
107.71474299341178
 20
138.98729261106768
 40
4.25
  0
LINE
  8
_8-8_
  6
CENTER1
 62
    4
 10
107.71474299341178
 20
147.31185075439458
 11
107.71474299341178
 21
130.86270217054752
  0
LINE
  8
_8-8_
  6
CENTER1
 62
    4
 10
99.615896873160068
 20
138.98729261106768
 11
115.62139622134324
 21
138.98729261106768
  0
ARC
  8
_8-4_
  6
CONTINUOUS
 62
    7
 10
118.71474299341181
 20
95.987292611067729
 40
3
 50
270
 51
0
  0
LINE
  8
_8-4_
  6
CONTINUOUS
 62
    7
 10
104.71474299341181
 20
92.987292611067758
 11
118.71474299341181
 21
92.987292611067758
  0
ARC
  8
_8-4_
  6
CONTINUOUS
 62
    7
 10
104.71474299341181
 20
95.987292611067729
 40
3
 50
180
 51
270
  0
LINE
  8
_8-4_
  6
CONTINUOUS
 62
    7
 10
101.71474299341178
 20
109.98729261106778
 11
101.71474299341178
 21
95.987292611067729
  0
ARC
  8
_8-4_
  6
CONTINUOUS
 62
    7
 10
104.71474299341181
 20
109.98729261106778
 40
3
 50
90
 51
180
  0
LINE
  8
_8-4_
  6
CONTINUOUS
 62
    7
 10
121.71474299341178
 20
109.98729261106778
 11
121.71474299341178
 21
95.987292611067729
  0
LINE
  8
_8-4_
  6
CONTINUOUS
 62
    7
 10
118.71474299341181
 20
112.98729261106775
 11
104.71474299341181
 21
112.98729261106775
  0
ARC
  8
_8-4_
  6
CONTINUOUS
 62
    7
 10
118.71474299341181
 20
109.98729261106778
 40
3
 50
0
 51
90
  0
ARC
  8
_8-4_
  6
CONTINUOUS
 62
    7
 10
176.71474299341178
 20
95.987292611067871
 40
3.0000000000000004
 50
270
 51
0
  0
LINE
  8
_8-4_
  6
CONTINUOUS
 62
    7
 10
162.71474299341178
 20
92.9872926110679
 11
176.71474299341178
 21
92.9872926110679
  0
ARC
  8
_8-4_
  6
CONTINUOUS
 62
    7
 10
162.71474299341178
 20
95.987292611067871
 40
3.0000000000000004
 50
180
 51
270
  0
LINE
  8
_8-4_
  6
CONTINUOUS
 62
    7
 10
159.71474299341181
 20
109.98729261106792
 11
159.71474299341181
 21
95.987292611067871
  0
ARC
  8
_8-4_
  6
CONTINUOUS
 62
    7
 10
162.71474299341178
 20
109.98729261106792
 40
3.0000000000000004
 50
90
 51
180
  0
LINE
  8
_8-4_
  6
CONTINUOUS
 62
    7
 10
179.71474299341173
 20
109.98729261106792
 11
179.71474299341173
 21
95.987292611067871
  0
LINE
  8
_8-4_
  6
CONTINUOUS
 62
    7
 10
176.71474299341178
 20
112.9872926110679
 11
162.71474299341178
 21
112.9872926110679
  0
ARC
  8
_8-4_
  6
CONTINUOUS
 62
    7
 10
176.71474299341178
 20
109.98729261106792
 40
3.0000000000000004
 50
0
 51
90
  0
CIRCLE
  8
_8-4_
  6
CONTINUOUS
 62
    7
 10
140.71474299341184
 20
116.98729261106767
 40
14.5
  0
LINE
  8
_8-4_
  6
CONTINUOUS
 62
    7
 10
134.36474299341185
 20
133.63729261106774
 11
147.06474299341181
 21
133.63729261106774
  0
LINE
  8
_8-4_
  6
CONTINUOUS
 62
    7
 10
147.06474299341181
 20
146.3372926110677
 11
134.36474299341185
 21
146.3372926110677
  0
LINE
  8
_8-4_
  6
CONTINUOUS
 62
    7
 10
134.36474299341185
 20
146.3372926110677
 11
134.36474299341185
 21
133.63729261106774
  0
LINE
  8
_8-4_
  6
CONTINUOUS
 62
    7
 10
147.06474299341181
 20
133.63729261106774
 11
147.06474299341181
 21
146.3372926110677
  0
LINE
  8
_8-4_
  6
CONTINUOUS
 62
    7
 10
179.71474299341173
 20
135.52319099592997
 11
179.71474299341173
 21
142.45139422620542
  0
LINE
  8
_8-4_
  6
CONTINUOUS
 62
    7
 10
179.71474299341173
 20
135.52319099592997
 11
173.71474299341178
 21
132.05908938079224
  0
LINE
  8
_8-4_
  6
CONTINUOUS
 62
    7
 10
167.71474299341178
 20
135.52319099592997
 11
173.71474299341178
 21
132.05908938079224
  0
LINE
  8
_8-4_
  6
CONTINUOUS
 62
    7
 10
179.71474299341173
 20
142.45139422620542
 11
173.71474299341178
 21
145.91549584134315
  0
LINE
  8
_8-4_
  6
CONTINUOUS
 62
    7
 10
167.71474299341178
 20
135.52319099592997
 11
167.71474299341178
 21
142.45139422620542
  0
LINE
  8
_8-4_
  6
CONTINUOUS
 62
    7
 10
173.71474299341178
 20
145.91549584134315
 11
167.71474299341178
 21
142.45139422620542
  0
LINE
  8
_8-4_
  6
CONTINUOUS
 62
    7
 10
113.71474299341181
 20
135.52319099592997
 11
113.71474299341181
 21
142.45139422620542
  0
LINE
  8
_8-4_
  6
CONTINUOUS
 62
    7
 10
113.71474299341181
 20
135.52319099592997
 11
107.71474299341178
 21
132.05908938079224
  0
LINE
  8
_8-4_
  6
CONTINUOUS
 62
    7
 10
101.71474299341178
 20
135.52319099592997
 11
107.71474299341178
 21
132.05908938079224
  0
LINE
  8
_8-4_
  6
CONTINUOUS
 62
    7
 10
113.71474299341181
 20
142.45139422620542
 11
107.71474299341178
 21
145.91549584134315
  0
LINE
  8
_8-4_
  6
CONTINUOUS
 62
    7
 10
101.71474299341178
 20
135.52319099592997
 11
101.71474299341178
 21
142.45139422620542
  0
LINE
  8
_8-4_
  6
CONTINUOUS
 62
    7
 10
107.71474299341178
 20
145.91549584134315
 11
101.71474299341178
 21
142.45139422620542
  0
ARC
  8
_8-0_
  6
CONTINUOUS
 62
    3
 10
183.87420634841441
 20
88.827829256065243
 40
2
 50
270
 51
0
  0
LINE
  8
_8-0_
  6
CONTINUOUS
 62
    3
 10
185.87420634841444
 20
145.14675596607037
 11
185.87420634841444
 21
88.827829256065243
  0
ARC
  8
_8-0_
  6
CONTINUOUS
 62
    3
 10
183.87420634841438
 20
145.14675596607037
 40
2
 50
0
 51
90
  0
LINE
  8
_8-0_
  6
CONTINUOUS
 62
    3
 10
97.55527963840862
 20
147.14675596607025
 11
183.87420634841438
 21
147.14675596607025
  0
ARC
  8
_8-0_
  6
CONTINUOUS
 62
    3
 10
97.55527963840862
 20
145.14675596607037
 40
2
 50
90
 51
180
  0
LINE
  8
_8-0_
  6
CONTINUOUS
 62
    3
 10
97.55527963840862
 20
86.827829256065072
 11
183.87420634841441
 21
86.827829256065072
  0
LINE
  8
_8-0_
  6
CONTINUOUS
 62
    3
 10
95.555279638408663
 20
88.827829256065243
 11
95.555279638408663
 21
145.14675596607037
  0
ARC
  8
_8-0_
  6
CONTINUOUS
 62
    3
 10
97.55527963840862
 20
88.827829256065243
 40
2
 50
180
 51
270
  0
LINE
  8
_8-e_
  6
AM_ISO02W050x2
 62
    7
 10
178.85474299341177
 20
146.98729261106751
 11
178.85474299341177
 21
147.1272926110679
  0
LINE
  8
_8-e_
  6
AM_ISO02W050x2
 62
    7
 10
102.57474299341183
 20
147.1272926110679
 11
178.85474299341177
 21
147.1272926110679
  0
LINE
  8
_8-e_
  6
AM_ISO02W050x2
 62
    7
 10
178.85474299341177
 20
86.987292611067957
 11
178.85474299341177
 21
86.847292611067715
  0
LINE
  8
_8-e_
  6
AM_ISO02W050x2
 62
    7
 10
102.57474299341183
 20
86.847292611067715
 11
178.85474299341177
 21
86.847292611067715
  0
LINE
  8
_8-e_
  6
AM_ISO02W050x2
 62
    7
 10
102.57474299341183
 20
146.98729261106751
 11
102.57474299341183
 21
147.1272926110679
  0
LINE
  8
_8-e_
  6
AM_ISO02W050x2
 62
    7
 10
102.57474299341183
 20
86.987292611067957
 11
102.57474299341183
 21
86.847292611067715
  0
LINE
  8
_8-e_
  6
AM_ISO02W050x2
 62
    7
 10
185.8547429934118
 20
140.12729261106761
 11
185.8547429934118
 21
93.847292611068169
  0
ARC
  8
_8-e_
  6
AM_ISO02W050x2
 62
    7
 10
185.71474299341181
 20
146.9872926110678
 40
6.8600000000000003
 50
180
 51
270
  0
ARC
  8
_8-e_
  6
AM_ISO02W050x2
 62
    7
 10
185.71474299341181
 20
86.987292611067815
 40
6.8600000000000003
 50
90
 51
180
  0
ARC
  8
_8-e_
  6
AM_ISO02W050x2
 62
    7
 10
95.714742993411832
 20
86.987292611067815
 40
6.8600000000000003
 50
0
 51
90
  0
LINE
  8
_8-e_
  6
AM_ISO02W050x2
 62
    7
 10
95.574742993411874
 20
140.12729261106761
 11
95.574742993411874
 21
93.847292611068169
  0
ARC
  8
_8-e_
  6
AM_ISO02W050x2
 62
    7
 10
95.714742993411832
 20
146.9872926110678
 40
6.8600000000000003
 50
270
 51
0
  0
TEXT
  8
_0-6_TK1
 62
    7
 10
219.0691056910569
 20
123.17073170731707
 40
3
 41
1
 50
0
  1
No, Dia,   Qty, Remark
  0
TEXT
  8
_0-6_TK1
 62
    7
 10
219.0691056910569
 20
113.17073170731707
 40
3
 41
1
 50
0
  1
2, φ3.2,  1,     -
  0
TEXT
  8
_0-6_TK1
 62
    7
 10
219.0691056910569
 20
108.17073170731707
 40
3
 41
1
 50
0
  1
3, φ11,   1,     -
  0
TEXT
  8
_0-6_TK1
 62
    7
 10
219.0691056910569
 20
103.17073170731707
 40
3
 41
1
 50
0
  1
4, φ8,    2,     -
  0
TEXT
  8
_0-6_TK1
 62
    7
 10
219.0691056910569
 20
98.170731707317074
 40
3
 41
1
 50
0
  1
5, φ2.8,  4,     -
  0
TEXT
  8
_0-6_TK1
 62
    7
 10
219.0691056910569
 20
93.170731707317074
 40
3
 41
1
 50
0
  1
6, φ9.6D, 2, BNC Panch
  0
LINE
  8
_0-8_TK3
  6
CENTER1
 62
    4
 10
166.3936261704041
 20
138.98729261106768
 11
181.2022829164797
 21
138.98729261106768
  0
LINE
  8
_0-8_TK3
  6
CENTER1
 62
    4
 10
173.71474299341178
 20
147.20095026877248
 11
173.71474299341178
 21
132.79549952320883
  0
LINE
  8
_0-8_TK3
  6
CENTER1
 62
    4
 10
100.3936261704041
 20
138.98729261106768
 11
115.20228291647967
 21
138.98729261106768
  0
LINE
  8
_0-8_TK3
  6
CENTER1
 62
    4
 10
107.71474299341178
 20
147.20095026877248
 11
107.71474299341178
 21
132.79549952320883
  0
LINE
  8
_0-8_TK3
  6
CENTER1
 62
    4
 10
140.71474299341184
 20
156.80539451453216
 11
140.71474299341184
 21
74.611130984364606
  0
LINE
  8
_0-8_TK3
  6
CENTER1
 62
    4
 10
82.967556729679756
 20
116.98729261106767
 11
198.23067512198471
 21
116.98729261106767
  0
LINE
  8
_0-8_TK3
  6
CENTER1
 62
    4
 10
169.71474299341181
 20
110.14311630719613
 11
169.71474299341181
 21
96.89487077797608
  0
LINE
  8
_0-8_TK3
  6
CENTER1
 62
    4
 10
111.71474299341178
 20
110.14311630719613
 11
111.71474299341178
 21
96.89487077797608
  0
LINE
  8
_0-8_TK3
  6
CENTER1
 62
    4
 10
99.688472362613822
 20
102.98729261106775
 11
182.62282469932137
 21
102.98729261106775
  0
LINE
  8
_0-8_TK3
  6
CENTER1
 62
    4
 10
148.26981294203184
 20
129.48729261106782
 11
132.90724796991929
 21
129.48729261106782
  0
LINE
  8
_0-8_TK3
  6
CONTINUOUS
 62
    4
 10
151.22715755612841
 20
116.98729261106767
 11
151.22715755612841
 21
129.48729261106782
  0
LINE
  8
_0-8_TK3
  6
CONTINUOUS
 62
    4
 10
151.22715755612841
 20
116.98729261106767
 11
150.45070042082085
 21
119.88507008993488
  0
LINE
  8
_0-8_TK3
  6
CONTINUOUS
 62
    4
 10
151.22715755612841
 20
116.98729261106767
 11
152.00361469143595
 21
119.88507008993488
  0
LINE
  8
_0-8_TK3
  6
CONTINUOUS
 62
    4
 10
151.22715755612841
 20
129.48729261106782
 11
152.00361469143598
 21
126.58951513220061
  0
LINE
  8
_0-8_TK3
  6
CONTINUOUS
 62
    4
 10
151.22715755612841
 20
129.48729261106782
 11
150.45070042082085
 21
126.58951513220061
  0
LINE
  8
_0-8_TK3
  6
CONTINUOUS
 62
    4
 10
151.22715755612841
 20
116.98729261106767
 11
148.26981294203184
 21
116.98729261106767
  0
LINE
  8
_0-8_TK3
  6
CONTINUOUS
 62
    4
 10
151.22715755612841
 20
129.48729261106782
 11
148.26981294203184
 21
129.48729261106782
  0
TEXT
  8
_0-8_TK3
 62
    4
 10
150.72715755612841
 20
120.73729261106774
 40
2.5
 41
1
 50
90
  1
12.5
  0
LINE
  8
_0-8_TK3
  6
CENTER1
 62
    4
 10
148.26981294203184
 20
139.98729261106763
 11
134.1225685017072
 21
139.98729261106763
  0
LINE
  8
_0-8_TK3
  6
CONTINUOUS
 62
    4
 10
158.27928702051247
 20
116.98729261106767
 11
158.27928702051247
 21
139.98729261106763
  0
LINE
  8
_0-8_TK3
  6
CONTINUOUS
 62
    4
 10
158.27928702051247
 20
116.98729261106767
 11
157.50282988520493
 21
119.88507008993487
  0
LINE
  8
_0-8_TK3
  6
CONTINUOUS
 62
    4
 10
158.27928702051247
 20
116.98729261106767
 11
159.05574415582003
 21
119.88507008993487
  0
LINE
  8
_0-8_TK3
  6
CONTINUOUS
 62
    4
 10
158.27928702051247
 20
139.98729261106763
 11
159.05574415582003
 21
137.08951513220043
  0
LINE
  8
_0-8_TK3
  6
CONTINUOUS
 62
    4
 10
158.27928702051247
 20
139.98729261106763
 11
157.50282988520493
 21
137.08951513220043
  0
LINE
  8
_0-8_TK3
  6
CONTINUOUS
 62
    4
 10
158.27928702051247
 20
116.98729261106767
 11
148.26981294203184
 21
116.98729261106767
  0
LINE
  8
_0-8_TK3
  6
CONTINUOUS
 62
    4
 10
158.27928702051247
 20
139.98729261106763
 11
148.26981294203184
 21
139.98729261106763
  0
TEXT
  8
_0-8_TK3
 62
    4
 10
157.77928702051247
 20
127.23729261106765
 40
2.5
 41
1
 50
90
  1
23
  0
LINE
  8
_0-8_TK3
  6
CONTINUOUS
 62
    4
 10
127.33551457465793
 20
102.98729261106775
 11
127.33551457465793
 21
116.98729261106767
  0
LINE
  8
_0-8_TK3
  6
CONTINUOUS
 62
    4
 10
127.33551457465793
 20
102.98729261106775
 11
126.55905743935038
 21
105.88507008993495
  0
LINE
  8
_0-8_TK3
  6
CONTINUOUS
 62
    4
 10
127.33551457465793
 20
102.98729261106775
 11
128.1119717099655
 21
105.88507008993495
  0
LINE
  8
_0-8_TK3
  6
CONTINUOUS
 62
    4
 10
127.33551457465793
 20
116.98729261106767
 11
128.1119717099655
 21
114.08951513220046
  0
LINE
  8
_0-8_TK3
  6
CONTINUOUS
 62
    4
 10
127.33551457465793
 20
116.98729261106767
 11
126.55905743935038
 21
114.08951513220046
  0
TEXT
  8
_0-8_TK3
 62
    4
 10
126.83551457465793
 20
108.73729261106771
 40
2.5
 41
1
 50
90
  1
14
  0
LINE
  8
_0-8_TK3
  6
CONTINUOUS
 62
    4
 10
168.9147429934118
 20
128.39926630973627
 11
178.5147429934118
 21
128.39926630973627
  0
LINE
  8
_0-8_TK3
  6
CONTINUOUS
 62
    4
 10
168.9147429934118
 20
128.39926630973627
 11
171.812520472279
 21
129.17572344504384
  0
LINE
  8
_0-8_TK3
  6
CONTINUOUS
 62
    4
 10
168.9147429934118
 20
128.39926630973627
 11
171.812520472279
 21
127.6228091744287
  0
LINE
  8
_0-8_TK3
  6
CONTINUOUS
 62
    4
 10
178.5147429934118
 20
128.39926630973627
 11
175.6169655145446
 21
127.6228091744287
  0
LINE
  8
_0-8_TK3
  6
CONTINUOUS
 62
    4
 10
178.5147429934118
 20
128.39926630973627
 11
175.6169655145446
 21
129.17572344504384
  0
LINE
  8
_0-8_TK3
  6
CONTINUOUS
 62
    4
 10
168.9147429934118
 20
128.39926630973627
 11
168.9147429934118
 21
138.2788023002181
  0
LINE
  8
_0-8_TK3
  6
CONTINUOUS
 62
    4
 10
178.5147429934118
 20
128.39926630973627
 11
178.5147429934118
 21
138.2788023002181
  0
TEXT
  8
_0-8_TK3
 62
    4
 10
171.83974299341178
 20
128.89926630973627
 40
2.5
 41
1
 50
0
  1
9.6
  0
LINE
  8
_0-8_TK3
  6
CONTINUOUS
 62
    4
 10
102.9147429934118
 20
128.39926630973627
 11
112.5147429934118
 21
128.39926630973627
  0
LINE
  8
_0-8_TK3
  6
CONTINUOUS
 62
    4
 10
102.9147429934118
 20
128.39926630973627
 11
105.812520472279
 21
129.17572344504384
  0
LINE
  8
_0-8_TK3
  6
CONTINUOUS
 62
    4
 10
102.9147429934118
 20
128.39926630973627
 11
105.812520472279
 21
127.6228091744287
  0
LINE
  8
_0-8_TK3
  6
CONTINUOUS
 62
    4
 10
112.5147429934118
 20
128.39926630973627
 11
109.6169655145446
 21
127.6228091744287
  0
LINE
  8
_0-8_TK3
  6
CONTINUOUS
 62
    4
 10
112.5147429934118
 20
128.39926630973627
 11
109.6169655145446
 21
129.17572344504384
  0
LINE
  8
_0-8_TK3
  6
CONTINUOUS
 62
    4
 10
102.9147429934118
 20
128.39926630973627
 11
102.9147429934118
 21
138.2788023002181
  0
LINE
  8
_0-8_TK3
  6
CONTINUOUS
 62
    4
 10
112.5147429934118
 20
128.39926630973627
 11
112.5147429934118
 21
138.2788023002181
  0
TEXT
  8
_0-8_TK3
 62
    4
 10
105.8397429934118
 20
128.89926630973627
 40
2.5
 41
1
 50
0
  1
9.6
  0
LINE
  8
_0-8_TK3
  6
CONTINUOUS
 62
    4
 10
118.80933967876264
 20
134.1872926110677
 11
118.80933967876264
 21
142.98729261106774
  0
LINE
  8
_0-8_TK3
  6
CONTINUOUS
 62
    4
 10
118.80933967876264
 20
134.1872926110677
 11
118.03288254345508
 21
137.0850700899349
  0
LINE
  8
_0-8_TK3
  6
CONTINUOUS
 62
    4
 10
118.80933967876264
 20
134.1872926110677
 11
119.5857968140702
 21
137.0850700899349
  0
LINE
  8
_0-8_TK3
  6
CONTINUOUS
 62
    4
 10
118.80933967876264
 20
142.98729261106774
 11
119.5857968140702
 21
140.08951513220054
  0
LINE
  8
_0-8_TK3
  6
CONTINUOUS
 62
    4
 10
118.80933967876264
 20
142.98729261106774
 11
118.03288254345508
 21
140.08951513220054
  0
LINE
  8
_0-8_TK3
  6
CONTINUOUS
 62
    4
 10
118.80933967876264
 20
134.1872926110677
 11
108.65913146936347
 21
134.1872926110677
  0
LINE
  8
_0-8_TK3
  6
CONTINUOUS
 62
    4
 10
118.80933967876264
 20
142.98729261106774
 11
108.65913146936347
 21
142.98729261106774
  0
TEXT
  8
_0-8_TK3
 62
    4
 10
118.30933967876264
 20
136.71229261106773
 40
2.5
 41
1
 50
90
  1
8.8
  0
LINE
  8
_0-8_TK3
  6
CONTINUOUS
 62
    4
 10
184.71802498512789
 20
134.1872926110677
 11
184.71802498512789
 21
142.98729261106774
  0
LINE
  8
_0-8_TK3
  6
CONTINUOUS
 62
    4
 10
184.71802498512789
 20
134.1872926110677
 11
183.94156784982033
 21
137.0850700899349
  0
LINE
  8
_0-8_TK3
  6
CONTINUOUS
 62
    4
 10
184.71802498512789
 20
134.1872926110677
 11
185.49448212043546
 21
137.0850700899349
  0
LINE
  8
_0-8_TK3
  6
CONTINUOUS
 62
    4
 10
184.71802498512789
 20
142.98729261106774
 11
185.49448212043546
 21
140.08951513220054
  0
LINE
  8
_0-8_TK3
  6
CONTINUOUS
 62
    4
 10
184.71802498512789
 20
142.98729261106774
 11
183.94156784982033
 21
140.08951513220054
  0
LINE
  8
_0-8_TK3
  6
CONTINUOUS
 62
    4
 10
184.71802498512789
 20
134.1872926110677
 11
175.10916121356336
 21
134.1872926110677
  0
LINE
  8
_0-8_TK3
  6
CONTINUOUS
 62
    4
 10
184.71802498512789
 20
142.98729261106774
 11
175.10916121356336
 21
142.98729261106774
  0
TEXT
  8
_0-8_TK3
 62
    4
 10
184.21802498512789
 20
136.71229261106773
 40
2.5
 41
1
 50
90
  1
8.8
  0
LINE
  8
_0-8_TK3
  6
CONTINUOUS
 62
    4
 10
165.36496133254016
 20
116.98729261106767
 11
165.36496133254016
 21
138.98729261106768
  0
LINE
  8
_0-8_TK3
  6
CONTINUOUS
 62
    4
 10
165.36496133254016
 20
116.98729261106767
 11
164.58850419723259
 21
119.88507008993487
  0
LINE
  8
_0-8_TK3
  6
CONTINUOUS
 62
    4
 10
165.36496133254016
 20
116.98729261106767
 11
166.14141846784772
 21
119.88507008993487
  0
LINE
  8
_0-8_TK3
  6
CONTINUOUS
 62
    4
 10
165.36496133254016
 20
138.98729261106768
 11
166.14141846784772
 21
136.08951513220048
  0
LINE
  8
_0-8_TK3
  6
CONTINUOUS
 62
    4
 10
165.36496133254016
 20
138.98729261106768
 11
164.58850419723259
 21
136.08951513220048
  0
LINE
  8
_0-8_TK3
  6
CONTINUOUS
 62
    4
 10
165.36496133254016
 20
116.98729261106767
 11
166.3936261704041
 21
116.98729261106767
  0
LINE
  8
_0-8_TK3
  6
CONTINUOUS
 62
    4
 10
165.36496133254016
 20
138.98729261106768
 11
166.3936261704041
 21
138.98729261106768
  0
TEXT
  8
_0-8_TK3
 62
    4
 10
164.86496133254016
 20
126.73729261106768
 40
2.5
 41
1
 50
90
  1
22
  0
LINE
  8
_0-8_TK3
  6
CONTINUOUS
 62
    4
 10
98.91493158834028
 20
116.98729261106767
 11
98.91493158834028
 21
138.98729261106768
  0
LINE
  8
_0-8_TK3
  6
CONTINUOUS
 62
    4
 10
98.91493158834028
 20
116.98729261106767
 11
98.138474453032728
 21
119.88507008993488
  0
LINE
  8
_0-8_TK3
  6
CONTINUOUS
 62
    4
 10
98.91493158834028
 20
116.98729261106767
 11
99.691388723647833
 21
119.88507008993488
  0
LINE
  8
_0-8_TK3
  6
CONTINUOUS
 62
    4
 10
98.91493158834028
 20
138.98729261106768
 11
99.691388723647833
 21
136.08951513220048
  0
LINE
  8
_0-8_TK3
  6
CONTINUOUS
 62
    4
 10
98.91493158834028
 20
138.98729261106768
 11
98.138474453032728
 21
136.08951513220048
  0
LINE
  8
_0-8_TK3
  6
CONTINUOUS
 62
    4
 10
98.91493158834028
 20
116.98729261106767
 11
100.3936261704041
 21
116.98729261106767
  0
LINE
  8
_0-8_TK3
  6
CONTINUOUS
 62
    4
 10
98.91493158834028
 20
138.98729261106768
 11
100.3936261704041
 21
138.98729261106768
  0
TEXT
  8
_0-8_TK3
 62
    4
 10
98.41493158834028
 20
126.73729261106768
 40
2.5
 41
1
 50
90
  1
22
  0
LINE
  8
_0-8_TK3
  6
CONTINUOUS
 62
    4
 10
166.25064137827405
 20
100.98729261106775
 11
173.17884460854958
 21
104.98729261106775
  0
LINE
  8
_0-8_TK3
  6
CONTINUOUS
 62
    4
 10
173.17884460854958
 20
104.98729261106775
 11
180.10704783882508
 21
108.98729261106775
  0
LINE
  8
_0-8_TK3
  6
CONTINUOUS
 62
    4
 10
161.92051435935186
 20
98.487292611067758
 11
166.25064137827405
 21
100.98729261106775
  0
LINE
  8
_0-8_TK3
  6
CONTINUOUS
 62
    4
 10
166.25064137827405
 20
100.98729261106775
 11
164.12932103471442
 21
98.865972267508112
  0
LINE
  8
_0-8_TK3
  6
CONTINUOUS
 62
    4
 10
166.25064137827405
 20
100.98729261106775
 11
163.35286389940685
 21
100.21083547576019
  0
LINE
  8
_0-8_TK3
  6
CONTINUOUS
 62
    4
 10
173.17884460854958
 20
104.98729261106775
 11
175.30016495210921
 21
107.1086129546274
  0
LINE
  8
_0-8_TK3
  6
CONTINUOUS
 62
    4
 10
173.17884460854958
 20
104.98729261106775
 11
176.07662208741678
 21
105.76374974637532
  0
TEXT
  8
_0-8_TK3
 62
    4
 10
175.52692081990289
 20
106.92030531295998
 40
2.5
 41
1
 50
29.999999999999992
  1
2-φ8
  0
LINE
  8
_0-8_TK3
  6
CENTER1
 62
    4
 10
176.71474299341178
 20
105.39212770176482
 11
176.71474299341178
 21
105.1214554828475
  0
LINE
  8
_0-8_TK3
  6
CENTER1
 62
    4
 10
176.71474299341178
 20
105.1214554828475
 11
176.71474299341178
 21
96.89487077797608
  0
LINE
  8
_0-8_TK3
  6
CENTER1
 62
    4
 10
162.71474299341178
 20
105.39212770176482
 11
162.71474299341178
 21
96.89487077797608
  0
LINE
  8
_0-8_TK3
  6
CENTER1
 62
    4
 10
118.71474299341181
 20
105.39212770176482
 11
118.71474299341181
 21
96.89487077797608
  0
LINE
  8
_0-8_TK3
  6
CENTER1
 62
    4
 10
104.71474299341181
 20
105.39212770176482
 11
104.71474299341181
 21
96.89487077797608
  0
LINE
  8
_0-8_TK3
  6
CONTINUOUS
 62
    4
 10
175.50230742811356
 20
102.28729261106775
 11
177.92717855870998
 21
103.68729261106776
  0
LINE
  8
_0-8_TK3
  6
CONTINUOUS
 62
    4
 10
177.92717855870998
 20
103.68729261106776
 11
187.02044529844658
 21
108.93729261106776
  0
LINE
  8
_0-8_TK3
  6
CONTINUOUS
 62
    4
 10
171.17218040919135
 20
99.787292611067755
 11
175.50230742811356
 21
102.28729261106775
  0
LINE
  8
_0-8_TK3
  6
CONTINUOUS
 62
    4
 10
175.50230742811356
 20
102.28729261106775
 11
173.3809870845539
 21
100.16597226750812
  0
LINE
  8
_0-8_TK3
  6
CONTINUOUS
 62
    4
 10
175.50230742811356
 20
102.28729261106775
 11
172.60452994924634
 21
101.5108354757602
  0
LINE
  8
_0-8_TK3
  6
CONTINUOUS
 62
    4
 10
177.92717855870998
 20
103.68729261106776
 11
180.04849890226964
 21
105.8086129546274
  0
LINE
  8
_0-8_TK3
  6
CONTINUOUS
 62
    4
 10
177.92717855870998
 20
103.68729261106776
 11
180.82495603757718
 21
104.46374974637531
  0
TEXT
  8
_0-8_TK3
 62
    4
 10
180.27525477006329
 20
105.62030531295997
 40
2.5
 41
1
 50
29.999999999999982
  1
4-φ2.8
  0
LINE
  8
_0-8_TK3
  6
CONTINUOUS
 62
    4
 10
137.90016043111239
 20
138.36229261106763
 11
143.52932555571126
 21
141.61229261106763
  0
TEXT
  8
_0-8_TK3
 62
    4
 10
146.95993352179513
 20
144.17030531295986
 40
2.5
 41
1
 50
30
  1
φ6.5
  0
LINE
  8
_0-8_TK3
  6
CONTINUOUS
 62
    4
 10
143.52932555571126
 20
141.61229261106763
 11
152.62259229544787
 21
146.86229261106763
  0
LINE
  8
_0-8_TK3
  6
CONTINUOUS
 62
    4
 10
133.57003341219021
 20
135.86229261106763
 11
137.90016043111239
 21
138.36229261106763
  0
LINE
  8
_0-8_TK3
  6
CONTINUOUS
 62
    4
 10
137.90016043111239
 20
138.36229261106763
 11
135.77884008755276
 21
136.24097226750799
  0
LINE
  8
_0-8_TK3
  6
CONTINUOUS
 62
    4
 10
137.90016043111239
 20
138.36229261106763
 11
135.00238295224519
 21
137.58583547576009
  0
LINE
  8
_0-8_TK3
  6
CONTINUOUS
 62
    4
 10
143.52932555571126
 20
141.61229261106763
 11
145.65064589927089
 21
143.73361295462729
  0
LINE
  8
_0-8_TK3
  6
CONTINUOUS
 62
    4
 10
143.52932555571126
 20
141.61229261106763
 11
146.42710303457846
 21
142.38874974637519
  0
LINE
  8
_0-8_TK3
  6
CONTINUOUS
 62
    4
 10
139.32910234735672
 20
128.68729261106781
 11
142.10038363946694
 21
130.28729261106781
  0
TEXT
  8
_0-8_TK3
 62
    4
 10
145.5309916055508
 20
132.84530531296002
 40
2.5
 41
1
 50
30.000000000000003
  1
φ3.2
  0
LINE
  8
_0-8_TK3
  6
CONTINUOUS
 62
    4
 10
142.10038363946694
 20
130.28729261106781
 11
151.19365037920354
 21
135.53729261106781
  0
LINE
  8
_0-8_TK3
  6
CONTINUOUS
 62
    4
 10
134.99897532843453
 20
126.18729261106781
 11
139.32910234735672
 21
128.68729261106781
  0
LINE
  8
_0-8_TK3
  6
CONTINUOUS
 62
    4
 10
139.32910234735672
 20
128.68729261106781
 11
137.20778200379709
 21
126.56597226750817
  0
LINE
  8
_0-8_TK3
  6
CONTINUOUS
 62
    4
 10
139.32910234735672
 20
128.68729261106781
 11
136.43132486848952
 21
127.91083547576025
  0
LINE
  8
_0-8_TK3
  6
CONTINUOUS
 62
    4
 10
142.10038363946694
 20
130.28729261106781
 11
144.22170398302657
 21
132.40861295462747
  0
LINE
  8
_0-8_TK3
  6
CONTINUOUS
 62
    4
 10
142.10038363946694
 20
130.28729261106781
 11
144.99816111833413
 21
131.06374974637537
  0
LINE
  8
_0-8_TK3
  6
CONTINUOUS
 62
    4
 10
135.95160327259742
 20
114.23729261106767
 11
145.47788271422624
 21
119.73729261106767
  0
TEXT
  8
_0-8_TK3
 62
    4
 10
138.29967948395074
 20
116.17030531295989
 40
2.5
 41
1
 50
30
  1
φ11
  0
LINE
  8
_0-8_TK3
  6
CONTINUOUS
 62
    4
 10
135.95160327259742
 20
114.23729261106767
 11
138.07292361615705
 21
116.35861295462731
  0
LINE
  8
_0-8_TK3
  6
CONTINUOUS
 62
    4
 10
135.95160327259742
 20
114.23729261106767
 11
138.84938075146462
 21
115.01374974637523
  0
LINE
  8
_0-8_TK3
  6
CONTINUOUS
 62
    4
 10
145.47788271422624
 20
119.73729261106767
 11
143.3565623706666
 21
117.61597226750802
  0
LINE
  8
_0-8_TK3
  6
CONTINUOUS
 62
    4
 10
145.47788271422624
 20
119.73729261106767
 11
142.58010523535904
 21
118.96083547576012
  0
LINE
  8
_0-8_TK3
  6
CONTINUOUS
 62
    4
 10
90.714742993411832
 20
73.447022275100806
 11
140.71474299341181
 21
73.447022275100806
  0
LINE
  8
_0-8_TK3
  6
CONTINUOUS
 62
    4
 10
90.714742993411832
 20
73.447022275100806
 11
93.612520472279044
 21
74.223479410408373
  0
LINE
  8
_0-8_TK3
  6
CONTINUOUS
 62
    4
 10
90.714742993411832
 20
73.447022275100806
 11
93.612520472279044
 21
72.670565139793239
  0
LINE
  8
_0-8_TK3
  6
CONTINUOUS
 62
    4
 10
140.71474299341181
 20
73.447022275100806
 11
137.81696551454461
 21
72.670565139793239
  0
LINE
  8
_0-8_TK3
  6
CONTINUOUS
 62
    4
 10
140.71474299341181
 20
73.447022275100806
 11
137.81696551454461
 21
74.223479410408373
  0
LINE
  8
_0-8_TK3
  6
CONTINUOUS
 62
    4
 10
90.714742993411832
 20
73.447022275100806
 11
90.714742993411832
 21
83.515103443717364
  0
LINE
  8
_0-8_TK3
  6
CONTINUOUS
 62
    4
 10
140.71474299341181
 20
73.447022275100806
 11
140.71474299341181
 21
83.515103443717364
  0
TEXT
  8
_0-8_TK3
 62
    4
 10
114.46474299341183
 20
73.947022275100806
 40
2.5
 41
1
 50
0
  1
50
  0
LINE
  8
_0-8_TK3
  6
CONTINUOUS
 62
    4
 10
140.71474299341184
 20
73.447022275100806
 11
190.71474299341181
 21
73.447022275100806
  0
LINE
  8
_0-8_TK3
  6
CONTINUOUS
 62
    4
 10
140.71474299341184
 20
73.447022275100806
 11
143.61252047227904
 21
74.223479410408373
  0
LINE
  8
_0-8_TK3
  6
CONTINUOUS
 62
    4
 10
140.71474299341184
 20
73.447022275100806
 11
143.61252047227904
 21
72.670565139793239
  0
LINE
  8
_0-8_TK3
  6
CONTINUOUS
 62
    4
 10
190.71474299341181
 20
73.447022275100806
 11
187.81696551454461
 21
72.670565139793239
  0
LINE
  8
_0-8_TK3
  6
CONTINUOUS
 62
    4
 10
190.71474299341181
 20
73.447022275100806
 11
187.81696551454461
 21
74.223479410408373
  0
LINE
  8
_0-8_TK3
  6
CONTINUOUS
 62
    4
 10
140.71474299341184
 20
73.447022275100806
 11
140.71474299341184
 21
83.515103443717364
  0
LINE
  8
_0-8_TK3
  6
CONTINUOUS
 62
    4
 10
190.71474299341181
 20
73.447022275100806
 11
190.71474299341181
 21
83.515103443717364
  0
TEXT
  8
_0-8_TK3
 62
    4
 10
164.46474299341184
 20
73.947022275100806
 40
2.5
 41
1
 50
0
  1
50
  0
LINE
  8
_0-8_TK3
  6
CONTINUOUS
 62
    4
 10
200.89242514376363
 20
81.987292611067672
 11
200.89242514376363
 21
116.98729261106765
  0
LINE
  8
_0-8_TK3
  6
CONTINUOUS
 62
    4
 10
200.89242514376363
 20
81.987292611067672
 11
200.11596800845606
 21
84.88507008993487
  0
LINE
  8
_0-8_TK3
  6
CONTINUOUS
 62
    4
 10
200.89242514376363
 20
81.987292611067672
 11
201.66888227907116
 21
84.88507008993487
  0
LINE
  8
_0-8_TK3
  6
CONTINUOUS
 62
    4
 10
200.89242514376363
 20
116.98729261106765
 11
201.66888227907116
 21
114.08951513220046
  0
LINE
  8
_0-8_TK3
  6
CONTINUOUS
 62
    4
 10
200.89242514376363
 20
116.98729261106765
 11
200.11596800845606
 21
114.08951513220046
  0
LINE
  8
_0-8_TK3
  6
CONTINUOUS
 62
    4
 10
200.89242514376363
 20
81.987292611067672
 11
189.88046136558926
 21
81.987292611067672
  0
LINE
  8
_0-8_TK3
  6
CONTINUOUS
 62
    4
 10
200.89242514376363
 20
116.98729261106765
 11
189.88046136558926
 21
116.98729261106765
  0
TEXT
  8
_0-8_TK3
 62
    4
 10
200.39242514376363
 20
98.237292611067672
 40
2.5
 41
1
 50
90
  1
35
  0
LINE
  8
_0-8_TK3
  6
CONTINUOUS
 62
    4
 10
200.89242514376363
 20
116.98729261106767
 11
200.89242514376363
 21
151.98729261106768
  0
LINE
  8
_0-8_TK3
  6
CONTINUOUS
 62
    4
 10
200.89242514376363
 20
116.98729261106767
 11
200.11596800845606
 21
119.88507008993487
  0
LINE
  8
_0-8_TK3
  6
CONTINUOUS
 62
    4
 10
200.89242514376363
 20
116.98729261106767
 11
201.66888227907116
 21
119.88507008993487
  0
LINE
  8
_0-8_TK3
  6
CONTINUOUS
 62
    4
 10
200.89242514376363
 20
151.98729261106768
 11
201.66888227907119
 21
149.08951513220046
  0
LINE
  8
_0-8_TK3
  6
CONTINUOUS
 62
    4
 10
200.89242514376363
 20
151.98729261106768
 11
200.11596800845606
 21
149.08951513220046
  0
LINE
  8
_0-8_TK3
  6
CONTINUOUS
 62
    4
 10
200.89242514376363
 20
116.98729261106767
 11
189.88046136558926
 21
116.98729261106767
  0
LINE
  8
_0-8_TK3
  6
CONTINUOUS
 62
    4
 10
200.89242514376363
 20
151.98729261106768
 11
189.88046136558926
 21
151.98729261106768
  0
TEXT
  8
_0-8_TK3
 62
    4
 10
200.39242514376363
 20
133.23729261106765
 40
2.5
 41
1
 50
90
  1
35
  0
LINE
  8
_0-8_TK3
  6
CONTINUOUS
 62
    4
 10
104.71474299341181
 20
89.63414634146342
 11
111.71474299341178
 21
89.63414634146342
  0
LINE
  8
_0-8_TK3
  6
CONTINUOUS
 62
    4
 10
104.71474299341181
 20
89.63414634146342
 11
107.61252047227903
 21
90.410603476770972
  0
LINE
  8
_0-8_TK3
  6
CONTINUOUS
 62
    4
 10
104.71474299341181
 20
89.63414634146342
 11
107.61252047227903
 21
88.857689206155853
  0
LINE
  8
_0-8_TK3
  6
CONTINUOUS
 62
    4
 10
111.71474299341178
 20
89.63414634146342
 11
108.81696551454457
 21
88.857689206155853
  0
LINE
  8
_0-8_TK3
  6
CONTINUOUS
 62
    4
 10
111.71474299341178
 20
89.63414634146342
 11
108.81696551454457
 21
90.410603476770972
  0
LINE
  8
_0-8_TK3
  6
CONTINUOUS
 62
    4
 10
104.71474299341181
 20
89.63414634146342
 11
104.71474299341181
 21
96.89487077797608
  0
LINE
  8
_0-8_TK3
  6
CONTINUOUS
 62
    4
 10
111.71474299341178
 20
89.63414634146342
 11
111.71474299341178
 21
96.89487077797608
  0
TEXT
  8
_0-8_TK3
 62
    4
 10
107.5897429934118
 20
90.13414634146342
 40
2.5
 41
1
 50
0
  1
7
  0
LINE
  8
_0-8_TK3
  6
CONTINUOUS
 62
    4
 10
111.71474299341178
 20
89.63414634146342
 11
118.71474299341181
 21
89.63414634146342
  0
LINE
  8
_0-8_TK3
  6
CONTINUOUS
 62
    4
 10
111.71474299341178
 20
89.63414634146342
 11
114.61252047227898
 21
90.410603476770972
  0
LINE
  8
_0-8_TK3
  6
CONTINUOUS
 62
    4
 10
111.71474299341178
 20
89.63414634146342
 11
114.61252047227898
 21
88.857689206155853
  0
LINE
  8
_0-8_TK3
  6
CONTINUOUS
 62
    4
 10
118.71474299341181
 20
89.63414634146342
 11
115.8169655145446
 21
88.857689206155853
  0
LINE
  8
_0-8_TK3
  6
CONTINUOUS
 62
    4
 10
118.71474299341181
 20
89.63414634146342
 11
115.8169655145446
 21
90.410603476770972
  0
LINE
  8
_0-8_TK3
  6
CONTINUOUS
 62
    4
 10
118.71474299341181
 20
89.63414634146342
 11
118.71474299341181
 21
96.89487077797608
  0
TEXT
  8
_0-8_TK3
 62
    4
 10
114.58974299341178
 20
90.13414634146342
 40
2.5
 41
1
 50
0
  1
7
  0
LINE
  8
_0-8_TK3
  6
CONTINUOUS
 62
    4
 10
162.71474299341178
 20
89.63414634146342
 11
169.71474299341181
 21
89.63414634146342
  0
LINE
  8
_0-8_TK3
  6
CONTINUOUS
 62
    4
 10
162.71474299341178
 20
89.63414634146342
 11
165.61252047227898
 21
90.410603476770972
  0
LINE
  8
_0-8_TK3
  6
CONTINUOUS
 62
    4
 10
162.71474299341178
 20
89.63414634146342
 11
165.61252047227898
 21
88.857689206155853
  0
LINE
  8
_0-8_TK3
  6
CONTINUOUS
 62
    4
 10
169.71474299341181
 20
89.63414634146342
 11
166.81696551454461
 21
88.857689206155853
  0
LINE
  8
_0-8_TK3
  6
CONTINUOUS
 62
    4
 10
169.71474299341181
 20
89.63414634146342
 11
166.81696551454461
 21
90.410603476770972
  0
LINE
  8
_0-8_TK3
  6
CONTINUOUS
 62
    4
 10
162.71474299341178
 20
89.63414634146342
 11
162.71474299341178
 21
96.89487077797608
  0
LINE
  8
_0-8_TK3
  6
CONTINUOUS
 62
    4
 10
169.71474299341181
 20
89.63414634146342
 11
169.71474299341181
 21
96.89487077797608
  0
TEXT
  8
_0-8_TK3
 62
    4
 10
165.58974299341178
 20
90.13414634146342
 40
2.5
 41
1
 50
0
  1
7
  0
LINE
  8
_0-8_TK3
  6
CONTINUOUS
 62
    4
 10
169.71474299341181
 20
89.63414634146342
 11
176.71474299341178
 21
89.63414634146342
  0
LINE
  8
_0-8_TK3
  6
CONTINUOUS
 62
    4
 10
169.71474299341181
 20
89.63414634146342
 11
172.61252047227901
 21
90.410603476770972
  0
LINE
  8
_0-8_TK3
  6
CONTINUOUS
 62
    4
 10
169.71474299341181
 20
89.63414634146342
 11
172.61252047227901
 21
88.857689206155853
  0
LINE
  8
_0-8_TK3
  6
CONTINUOUS
 62
    4
 10
176.71474299341178
 20
89.63414634146342
 11
173.81696551454456
 21
88.857689206155853
  0
LINE
  8
_0-8_TK3
  6
CONTINUOUS
 62
    4
 10
176.71474299341178
 20
89.63414634146342
 11
173.81696551454456
 21
90.410603476770972
  0
LINE
  8
_0-8_TK3
  6
CONTINUOUS
 62
    4
 10
176.71474299341178
 20
89.63414634146342
 11
176.71474299341178
 21
96.89487077797608
  0
TEXT
  8
_0-8_TK3
 62
    4
 10
172.58974299341178
 20
90.13414634146342
 40
2.5
 41
1
 50
0
  1
7
  0
ARC
  8
_0-2_Defpoints
  6
CONTINUOUS
 62
    3
 10
94.714742993411817
 20
147.98729261106774
 40
4
 50
90
 51
180
  0
LINE
  8
_0-2_Defpoints
  6
CONTINUOUS
 62
    3
 10
90.714742993411832
 20
147.98729261106774
 11
90.714742993411832
 21
85.987292611067587
  0
LINE
  8
_0-2_Defpoints
  6
CONTINUOUS
 62
    3
 10
94.714742993411817
 20
151.98729261106765
 11
186.71474299341176
 21
151.98729261106765
  0
ARC
  8
_0-2_Defpoints
  6
CONTINUOUS
 62
    3
 10
94.714742993411817
 20
85.987292611067587
 40
4
 50
180
 51
270
  0
LINE
  8
_0-2_Defpoints
  6
CONTINUOUS
 62
    3
 10
94.714742993411817
 20
81.987292611067672
 11
186.71474299341176
 21
81.987292611067672
  0
ARC
  8
_0-2_Defpoints
  6
CONTINUOUS
 62
    3
 10
186.71474299341176
 20
85.987292611067587
 40
4
 50
270
 51
0
  0
LINE
  8
_0-2_Defpoints
  6
CONTINUOUS
 62
    3
 10
190.71474299341181
 20
85.987292611067587
 11
190.71474299341181
 21
147.98729261106774
  0
ARC
  8
_0-2_Defpoints
  6
CONTINUOUS
 62
    3
 10
186.71474299341176
 20
147.98729261106774
 40
4
 50
0
 51
90
  0
ARC
  8
_0-0_0
  6
CONTINUOUS
 62
    7
 10
107.71474299341178
 20
138.98729261106768
 40
4.7999999999999998
 50
123.55730976191949
 51
56.442690238080494
  0
LINE
  8
_0-0_0
  6
CONTINUOUS
 62
    7
 10
110.36804282569605
 20
142.98729261106774
 11
105.06144316112761
 21
142.98729261106774
  0
CIRCLE
  8
_0-0_0
  6
CONTINUOUS
 62
    7
 10
140.71474299341184
 20
139.98729261106763
 40
3.25
  0
CIRCLE
  8
_0-0_0
  6
CONTINUOUS
 62
    7
 10
140.71474299341184
 20
129.48729261106782
 40
1.6
  0
ARC
  8
_0-0_0
  6
CONTINUOUS
 62
    7
 10
173.71474299341178
 20
138.98729261106768
 40
4.7999999999999998
 50
123.55730976191949
 51
56.442690238080494
  0
LINE
  8
_0-0_0
  6
CONTINUOUS
 62
    7
 10
176.36804282569607
 20
142.98729261106774
 11
171.06144316112755
 21
142.98729261106774
  0
CIRCLE
  8
_0-0_0
  6
CONTINUOUS
 62
    7
 10
140.71474299341184
 20
116.98729261106767
 40
5.5
  0
CIRCLE
  8
_0-0_0
  6
CONTINUOUS
 62
    7
 10
104.71474299341181
 20
102.98729261106775
 40
1.3999999999999999
  0
CIRCLE
  8
_0-0_0
  6
CONTINUOUS
 62
    7
 10
111.71474299341178
 20
102.98729261106775
 40
4
  0
CIRCLE
  8
_0-0_0
  6
CONTINUOUS
 62
    7
 10
118.71474299341181
 20
102.98729261106775
 40
1.3999999999999999
  0
CIRCLE
  8
_0-0_0
  6
CONTINUOUS
 62
    7
 10
162.71474299341178
 20
102.98729261106775
 40
1.3999999999999999
  0
CIRCLE
  8
_0-0_0
  6
CONTINUOUS
 62
    7
 10
169.71474299341181
 20
102.98729261106775
 40
4
  0
CIRCLE
  8
_0-0_0
  6
CONTINUOUS
 62
    7
 10
176.71474299341178
 20
102.98729261106775
 40
1.3999999999999999
  0
LINE
  8
_0-a_TK20
  6
CONTINUOUS
 62
    4
 10
210.80319254412057
 20
81.987292611067672
 11
210.80319254412057
 21
151.98729261106768
  0
LINE
  8
_0-a_TK20
  6
CONTINUOUS
 62
    4
 10
210.80319254412057
 20
81.987292611067672
 11
210.02673540881301
 21
84.88507008993487
  0
LINE
  8
_0-a_TK20
  6
CONTINUOUS
 62
    4
 10
210.80319254412057
 20
81.987292611067672
 11
211.57964967942811
 21
84.88507008993487
  0
LINE
  8
_0-a_TK20
  6
CONTINUOUS
 62
    4
 10
210.80319254412057
 20
151.98729261106768
 11
211.57964967942814
 21
149.08951513220046
  0
LINE
  8
_0-a_TK20
  6
CONTINUOUS
 62
    4
 10
210.80319254412057
 20
151.98729261106768
 11
210.02673540881301
 21
149.08951513220046
  0
TEXT
  8
_0-a_TK20
 62
    4
 10
210.30319254412057
 20
115.73729261106767
 40
2.5
 41
1
 50
90
  1
70
  0
LINE
  8
_0-a_TK20
  6
CONTINUOUS
 62
    4
 10
210.80319254412057
 20
151.98729261106768
 11
200.89242514376363
 21
151.98729261106768
  0
LINE
  8
_0-a_TK20
  6
CONTINUOUS
 62
    4
 10
210.80319254412057
 20
81.987292611067672
 11
200.89242514376363
 21
81.987292611067672
  0
LINE
  8
_0-a_TK20
  6
CONTINUOUS
 62
    4
 10
90.714742993411832
 20
64.794765020820932
 11
190.71474299341181
 21
64.794765020820932
  0
LINE
  8
_0-a_TK20
  6
CONTINUOUS
 62
    4
 10
90.714742993411832
 20
64.794765020820932
 11
93.612520472279044
 21
65.571222156128499
  0
LINE
  8
_0-a_TK20
  6
CONTINUOUS
 62
    4
 10
90.714742993411832
 20
64.794765020820932
 11
93.612520472279044
 21
64.01830788551338
  0
LINE
  8
_0-a_TK20
  6
CONTINUOUS
 62
    4
 10
190.71474299341181
 20
64.794765020820932
 11
187.81696551454461
 21
64.01830788551338
  0
LINE
  8
_0-a_TK20
  6
CONTINUOUS
 62
    4
 10
190.71474299341181
 20
64.794765020820932
 11
187.81696551454461
 21
65.571222156128499
  0
TEXT
  8
_0-a_TK20
 62
    4
 10
138.83974299341181
 20
65.294765020820932
 40
2.5
 41
1
 50
0
  1
100
  0
LINE
  8
_0-a_TK20
  6
CONTINUOUS
 62
    4
 10
90.714742993411832
 20
64.794765020820932
 11
90.714742993411832
 21
73.447022275100806
  0
LINE
  8
_0-a_TK20
  6
CONTINUOUS
 62
    4
 10
190.71474299341181
 20
64.794765020820932
 11
190.71474299341181
 21
73.447022275100806
  0
CIRCLE
  8
_3-8_
  6
CONTINUOUS
 62
    4
 10
140.65496340835736
 20
117.02180637059092
 40
13
  0
LINE
  8
_3-8_
  6
CONTINUOUS
 62
    4
 10
140.71474299341184
 20
116.98729261106767
 11
151.94306441763248
 21
123.46996700788911
  0
LINE
  8
_3-8_
  6
CONTINUOUS
 62
    4
 10
140.71474299341184
 20
116.98729261106767
 11
153.65491759290753
 21
116.98729261106767
  0
LINE
  8
_3-8_
  6
CONTINUOUS
 62
    4
 10
140.71474299341184
 20
116.98729261106767
 11
147.21465136202778
 21
128.24546415005261
  0
LINE
  8
_3-8_
  6
CONTINUOUS
 62
    4
 10
140.71474299341184
 20
116.98729261106767
 11
140.71474299341184
 21
130.02166892375703
  0
LINE
  8
_3-8_
  6
CONTINUOUS
 62
    4
 10
140.71474299341184
 20
116.98729261106767
 11
147.18483029315967
 21
105.78077267849828
  0
LINE
  8
_3-8_
  6
CONTINUOUS
 62
    4
 10
140.71474299341184
 20
116.98729261106767
 11
151.91329365755507
 21
110.52180637059092
  0
LINE
  8
_3-8_
  6
CONTINUOUS
 62
    4
 10
140.71474299341184
 20
116.98729261106765
 11
140.71474299341184
 21
104.02194381742481
  0
LINE
  8
_3-8_
  6
CONTINUOUS
 62
    4
 10
140.71474299341184
 20
116.98729261106765
 11
134.1848761086095
 21
128.29735382220681
  0
LINE
  8
_3-8_
  6
CONTINUOUS
 62
    4
 10
140.71474299341187
 20
116.98729261106765
 11
129.39663315915964
 21
123.52180637059092
  0
LINE
  8
_3-8_
  6
CONTINUOUS
 62
    4
 10
140.71474299341184
 20
116.98729261106765
 11
127.65500922380718
 21
116.98729261106765
  0
LINE
  8
_3-8_
  6
CONTINUOUS
 62
    4
 10
140.71474299341184
 20
116.98729261106765
 11
134.21483462479591
 21
105.72912107208273
  0
LINE
  8
_3-8_
  6
CONTINUOUS
 62
    4
 10
169.71474299341181
 20
102.98729261106775
 11
177.99931772513645
 21
119.24668601319301
  0
LINE
  8
_3-8_
  6
CONTINUOUS
 62
    4
 10
169.71474299341181
 20
102.98729261106775
 11
172.80306135784996
 21
122.48616736233799
  0
LINE
  8
_3-8_
  6
CONTINUOUS
 62
    4
 10
169.71474299341181
 20
102.98729261106775
 11
166.68404833111304
 21
122.12234562567415
  0
LINE
  8
_3-8_
  6
CONTINUOUS
 62
    4
 10
169.71474299341181
 20
102.98729261106775
 11
160.89272587857527
 21
120.30147608039222
  0
LINE
  8
_3-8_
  6
CONTINUOUS
 62
    4
 10
169.71474299341181
 20
102.98729261106777
 11
156.51920472801148
 21
116.1828308764681
  0
LINE
  8
_3-8_
  6
CONTINUOUS
 62
    4
 10
169.71474299341181
 20
102.98729261106777
 11
153.46980094453749
 21
111.26450401053139
  0
LINE
  8
_3-8_
  6
CONTINUOUS
 62
    4
 10
169.71474299341181
 20
102.98729261106777
 11
151.69106656404198
 21
100.13262270721149
  0
LINE
  8
_3-8_
  6
CONTINUOUS
 62
    4
 10
169.71474299341181
 20
102.98729261106777
 11
152.12455395944485
 21
94.024643636843791
  0
LINE
  8
_3-8_
  6
CONTINUOUS
 62
    4
 10
169.71474299341181
 20
102.98729261106777
 11
156.01555754303041
 21
89.288107160686351
  0
LINE
  8
_3-8_
  6
CONTINUOUS
 62
    4
 10
169.71474299341181
 20
102.98729261106775
 11
183.21802818542147
 21
116.49057780307742
  0
ARC
  8
_3-8_
  6
CONTINUOUS
 62
    4
 10
169.71474299341181
 20
102.98729261106777
 40
17
 50
38.253139272534156
 51
230.24497289816406
  0
LINE
  8
_3-8_
  6
CONTINUOUS
 62
    4
 10
169.71474299341181
 20
102.98729261106777
 11
151.00554109636573
 21
105.95053908245016
  0
TEXT
  8
_3-0_
 62
    7
 10
146.46465136202778
 20
126.74546415005262
 40
3
 41
1
 50
0
  1
B
  0
TEXT
  8
_3-0_
 62
    7
 10
151.19306441763248
 20
121.96996700788911
 40
3
 41
1
 50
0
  1
C
  0
TEXT
  8
_3-0_
 62
    7
 10
152.90491759290753
 20
115.48729261106767
 40
3
 41
1
 50
0
  1
D
  0
TEXT
  8
_3-0_
 62
    7
 10
151.16329365755507
 20
109.02180637059092
 40
3
 41
1
 50
0
  1
E
  0
TEXT
  8
_3-0_
 62
    7
 10
146.43483029315967
 20
104.28077267849828
 40
3
 41
1
 50
0
  1
F
  0
TEXT
  8
_3-0_
 62
    7
 10
139.96474299341184
 20
102.52194381742481
 40
3
 41
1
 50
0
  1
G
  0
TEXT
  8
_3-0_
 62
    7
 10
128.67664198413672
 20
108.97010445472298
 40
3
 41
1
 50
0
  1
I
  0
TEXT
  8
_3-0_
 62
    7
 10
133.46483462479591
 20
104.22912107208273
 40
3
 41
1
 50
0
  1
H
  0
TEXT
  8
_3-0_
 62
    7
 10
126.90500922380718
 20
115.48729261106765
 40
3
 41
1
 50
0
  1
J
  0
TEXT
  8
_3-0_
 62
    7
 10
128.4987276092273
 20
122.23768920616035
 40
3
 41
1
 50
0
  1
K
  0
TEXT
  8
_3-0_
 62
    7
 10
133.4348761086095
 20
126.7973538222068
 40
3
 41
1
 50
0
  1
L
  0
TEXT
  8
_3-0_
 62
    7
 10
156.94392771324052
 20
89.466477330896466
 40
3
 41
1
 50
0
  1
0
  0
TEXT
  8
_3-0_
 62
    7
 10
153.81763208220957
 20
93.769454115495477
 40
3
 41
1
 50
0
  1
1
  0
TEXT
  8
_3-0_
 62
    7
 10
152.17404120329447
 20
98.827906705383853
 40
3
 41
1
 50
0
  1
2
  0
TEXT
  8
_3-0_
 62
    7
 10
152.17404120329447
 20
104.14667851675169
 40
3
 41
1
 50
0
  1
3
  0
TEXT
  8
_3-0_
 62
    7
 10
153.81763208220957
 20
109.20513110664006
 40
3
 41
1
 50
0
  1
4
  0
TEXT
  8
_3-0_
 62
    7
 10
156.94392771324049
 20
113.50810789123907
 40
3
 41
1
 50
0
  1
5
  0
TEXT
  8
_3-0_
 62
    7
 10
161.24690449783952
 20
116.63440352227001
 40
3
 41
1
 50
0
  1
6
  0
TEXT
  8
_3-0_
 62
    7
 10
166.30535708772788
 20
118.27799440118511
 40
3
 41
1
 50
0
  1
7
  0
TEXT
  8
_3-0_
 62
    7
 10
171.62412889909575
 20
118.27799440118512
 40
3
 41
1
 50
0
  1
8
  0
TEXT
  8
_3-0_
 62
    7
 10
176.68258148898411
 20
116.63440352227001
 40
3
 41
1
 50
0
  1
9
  0
TEXT
  8
_3-0_
 62
    7
 10
180.11055827358313
 20
113.50810789123907
 40
3
 41
1
 50
0
  1
10
  0
LINE
  8
_3-8_
  6
CONTINUOUS
 62
    4
 10
111.71474299341177
 20
102.98729261106768
 11
127.97413639553704
 21
94.702717879343069
  0
LINE
  8
_3-8_
  6
CONTINUOUS
 62
    4
 10
111.71474299341177
 20
102.98729261106768
 11
131.21361774468201
 21
99.898974246629521
  0
LINE
  8
_3-8_
  6
CONTINUOUS
 62
    4
 10
111.71474299341177
 20
102.98729261106768
 11
130.84979600801818
 21
106.01798727336645
  0
LINE
  8
_3-8_
  6
CONTINUOUS
 62
    4
 10
111.71474299341178
 20
102.98729261106768
 11
129.02892646273625
 21
111.80930972590424
  0
LINE
  8
_3-8_
  6
CONTINUOUS
 62
    4
 10
111.71474299341178
 20
102.98729261106768
 11
124.91028125881211
 21
116.18283087646801
  0
LINE
  8
_3-8_
  6
CONTINUOUS
 62
    4
 10
111.71474299341178
 20
102.98729261106768
 11
119.99195439287541
 21
119.23223465994199
  0
LINE
  8
_3-8_
  6
CONTINUOUS
 62
    4
 10
111.71474299341178
 20
102.98729261106768
 11
108.86007308955551
 21
121.01096904043751
  0
LINE
  8
_3-8_
  6
CONTINUOUS
 62
    4
 10
111.71474299341178
 20
102.98729261106768
 11
102.7520940191878
 21
120.57748164503463
  0
LINE
  8
_3-8_
  6
CONTINUOUS
 62
    4
 10
111.71474299341178
 20
102.98729261106768
 11
98.015557543030382
 21
116.68647806144909
  0
LINE
  8
_3-8_
  6
CONTINUOUS
 62
    4
 10
111.71474299341177
 20
102.98729261106768
 11
125.21802818542144
 21
89.484007419058031
  0
ARC
  8
_3-8_
  6
CONTINUOUS
 62
    4
 10
111.71474299341178
 20
102.98729261106768
 40
17
 50
308.25313927253415
 51
140.24497289816403
  0
LINE
  8
_3-8_
  6
CONTINUOUS
 62
    4
 10
111.71474299341178
 20
102.98729261106768
 11
114.67798946479418
 21
121.69649450811377
  0
TEXT
  8
_3-0_
 62
    7
 10
98.943927713240483
 20
113.50810789123899
 40
3
 41
1
 50
0
  1
0
  0
TEXT
  8
_3-0_
 62
    7
 10
103.24690449783949
 20
116.63440352226993
 40
3
 41
1
 50
0
  1
1
  0
TEXT
  8
_3-0_
 62
    7
 10
108.30535708772785
 20
118.27799440118502
 40
3
 41
1
 50
0
  1
2
  0
TEXT
  8
_3-0_
 62
    7
 10
113.6241288990957
 20
118.27799440118502
 40
3
 41
1
 50
0
  1
3
  0
TEXT
  8
_3-0_
 62
    7
 10
118.68258148898408
 20
116.63440352226993
 40
3
 41
1
 50
0
  1
4
  0
TEXT
  8
_3-0_
 62
    7
 10
122.98555827358309
 20
113.50810789123899
 40
3
 41
1
 50
0
  1
5
  0
TEXT
  8
_3-0_
 62
    7
 10
126.11185390461403
 20
109.20513110663998
 40
3
 41
1
 50
0
  1
6
  0
TEXT
  8
_3-0_
 62
    7
 10
127.75544478352912
 20
104.14667851675162
 40
3
 41
1
 50
0
  1
7
  0
TEXT
  8
_3-0_
 62
    7
 10
127.75544478352912
 20
98.827906705383767
 40
3
 41
1
 50
0
  1
8
  0
TEXT
  8
_3-0_
 62
    7
 10
126.11185390461403
 20
93.769454115495392
 40
3
 41
1
 50
0
  1
9
  0
TEXT
  8
_3-0_
 62
    7
 10
122.11055827358309
 20
89.466477330896367
 40
3
 41
1
 50
0
  1
10
  0
TEXT
  8
_0-6_TK1
 62
    7
 10
229.59756097560975
 20
133.45528455284551
 40
3
 41
1
 50
0
  1
 ^m
  0
TEXT
  8
_0-6_TK1
 62
    7
 10
217.36178861788619
 20
128.61788617886179
 40
3
 41
1
 50
0
  1
Drilling List
  0
TEXT
  8
_0-2_Defpoints
 62
    3
 10
91.304878048780494
 20
53.780487804878035
 40
5
 41
1
 50
0
  1
TD7-10-3B Base　Top View
  0
TEXT
  8
_3-0_
 62
    7
 10
139.96474299341184
 20
131.52166892375703
 40
3
 41
1
 50
0
  1
A
  0
LINE
  8
_3-8_
  6
CENTER1
 62
    4
 10
146.71474299341184
 20
146.96727272727272
 11
146.71474299341184
 21
131.84727272727272
  0
LINE
  8
_3-8_
  6
CENTER1
 62
    4
 10
123.59454545454545
 20
139.98729261106763
 11
159.6381818181818
 21
139.98729261106763
  0
LINE
  8
_3-8_
  6
CENTER1
 62
    4
 10
134.71474299341184
 20
146.96727272727272
 11
134.71474299341184
 21
131.84727272727272
  0
LINE
  8
_3-8_
  6
CENTER1
 62
    4
 10
123.12947368421052
 20
143.98729261106763
 11
158.1109090909091
 21
143.98729261106763
  0
LINE
  8
_3-8_
  6
CENTER1
 62
    4
 10
123.12947368421052
 20
135.98729261106763
 11
158.1109090909091
 21
135.98729261106763
  0
TEXT
  8
_3-0_
 62
    7
 10
126.21474299341184
 20
138.48729261106763
 40
3
 41
1
 50
0
  1
TUNER
  0
TEXT
  8
_3-0_
 62
    7
 10
146.71474299341184
 20
134.48729261106763
 40
3
 41
1
 50
0
  1
OFF
  0
TEXT
  8
_3-0_
 62
    7
 10
146.71474299341184
 20
142.48729261106763
 40
3
 41
1
 50
0
  1
ON
  0
LINE
  8
_3-0_
  6
CONTINUOUS
 62
    7
 10
189.88046136558926
 20
81.987292611067672
 11
216.18
 21
81.987292611067672
  0
LINE
  8
_3-0_
  6
CONTINUOUS
 62
    4
 10
210.80319254412057
 20
81.987292611067672
 11
210.80319254412057
 21
151.98729261106768
  0
LINE
  8
_3-0_
  6
CONTINUOUS
 62
    4
 10
210.80319254412057
 20
81.987292611067672
 11
210.02673540881301
 21
84.88507008993487
  0
LINE
  8
_3-0_
  6
CONTINUOUS
 62
    4
 10
210.80319254412057
 20
81.987292611067672
 11
211.57964967942811
 21
84.88507008993487
  0
TEXT
  8
_3-0_
 62
    4
 10
210.30319254412057
 20
115.73729261106767
 40
2.5
 41
1
 50
90
  1
70
  0
LINE
  8
_3-0_
  6
CONTINUOUS
 62
    7
 10
92.068995215311005
 20
81.987292611067672
 11
64.031483253588518
 21
81.987292611067672
  0
LINE
  8
_3-0_
  6
CONTINUOUS
 62
    7
 10
90.714742993411832
 20
83.515103443717364
 11
90.714742993411832
 21
61.440000000000004
  0
LINE
  8
_3-0_
  6
CONTINUOUS
 62
    4
 10
90.714742993411832
 20
64.794765020820932
 11
190.71474299341181
 21
64.794765020820932
  0
LINE
  8
_3-0_
  6
CONTINUOUS
 62
    4
 10
90.714742993411832
 20
64.794765020820932
 11
93.612520472279044
 21
65.571222156128499
  0
LINE
  8
_3-0_
  6
CONTINUOUS
 62
    4
 10
90.714742993411832
 20
64.794765020820932
 11
93.612520472279044
 21
64.01830788551338
  0
TEXT
  8
_3-0_
 62
    4
 10
138.83974299341181
 20
65.294765020820932
 40
2.5
 41
1
 50
0
  1
100
  0
LINE
  8
_3-0_
  6
CONTINUOUS
 62
    7
 10
190.71474299341181
 20
83.515103443717364
 11
190.71474299341181
 21
60.359999999999999
  0
LINE
  8
_3-0_
  6
CONTINUOUS
 62
    4
 10
190.71474299341181
 20
64.794765020820932
 11
187.81696551454461
 21
64.01830788551338
  0
LINE
  8
_3-0_
  6
CONTINUOUS
 62
    4
 10
190.71474299341181
 20
64.794765020820932
 11
187.81696551454461
 21
65.571222156128499
  0
LINE
  8
_3-0_
  6
CONTINUOUS
 62
    7
 10
92.068995215310991
 20
151.98729261106768
 11
64.031483253588518
 21
151.98729261106768
  0
LINE
  8
_3-0_
  6
CONTINUOUS
 62
    7
 10
90.714742993411832
 20
147.98729261106774
 11
90.714742993411832
 21
162.25779904306219
  0
LINE
  8
_3-0_
  6
CONTINUOUS
 62
    7
 10
190.71474299341181
 20
149.8685167464115
 11
190.71474299341181
 21
162.6999043062201
  0
LINE
  8
_3-0_
  6
CONTINUOUS
 62
    7
 10
189.88046136558926
 20
151.98729261106768
 11
216.18
 21
151.98729261106768
  0
LINE
  8
_3-0_
  6
CONTINUOUS
 62
    4
 10
210.80319254412057
 20
151.98729261106768
 11
211.57964967942814
 21
149.08951513220046
  0
LINE
  8
_3-0_
  6
CONTINUOUS
 62
    4
 10
210.80319254412057
 20
151.98729261106768
 11
210.02673540881301
 21
149.08951513220046
  0
CIRCLE
  8
_3-0_
  6
CONTINUOUS
 62
    7
 10
140.71474299341184
 20
116.8210267537383
 40
6.5
  0
CIRCLE
  8
_3-0_
  6
CONTINUOUS
 62
    7
 10
169.71474299341181
 20
102.98729261106775
 40
5
  0
CIRCLE
  8
_3-0_
  6
CONTINUOUS
 62
    7
 10
111.71474299341178
 20
102.98729261106775
 40
5
  0
TEXT
  8
_3-0_
 62
    7
 10
110.8584
 20
156.5352
 40
3
 41
1
 50
0
  1
TD7-10-3B Base Printing - Top View
  0
LINE
  8
_3-8_
  6
CONTINUOUS
 62
    4
 10
130.31493588516747
 20
89.827829256065243
 11
153.15512727272727
 21
89.827829256065243
  0
LINE
  8
_3-8_
  6
CONTINUOUS
 62
    4
 10
140.71474299341184
 20
116.98729261106765
 11
140.71474299341184
 21
83.367410526315794
  0
TEXT
  8
_3-0_
 62
    7
 10
135.58974299341184
 20
88.327829256065243
 40
3
 41
1
 50
0
  1
JJ1LFO
  0
ENDSEC
  0
EOF
