  0
SECTION
  2
HEADER
  9
$ACADVER
  1
AC1009
  9
$INSBASE
 10
0
 20
0
 30
0
  9
$EXTMIN
 10
0
 20
0
  9
$EXTMAX
 10
297
 20
210
  9
$LIMMIN
 10
0
 20
0
  9
$LIMMAX
 10
297
 20
210
  9
$LTSCALE
 40
1
  0
ENDSEC
  0
SECTION
  2
TABLES
  0
TABLE
  2
LTYPE
 70
     9
  0
LTYPE
  2
CONTINUOUS
 70
    64
  3
実線
 72
    65
 73
     0
 40
0.0
  0
LTYPE
  2
DASHED1
 70
    64
  3
--  --  --  --  --  --  --  --  
 72
    65
 73
     2
 40
2.5
 49
1.25
 49
-1.25
  0
LTYPE
  2
DASHED2
 70
    64
  3
----    ----    ----    ----    
 72
    65
 73
     2
 40
5.0
 49
2.5
 49
-2.5
  0
LTYPE
  2
DASHED3
 70
    64
  3
------  ------  ------  ------  
 72
    65
 73
     2
 40
5.0
 49
3.75
 49
-1.25
  0
LTYPE
  2
CENTER1
 70
    64
  3
----- - ----- - ----- - ----- - 
 72
    65
 73
     4
 40
10.0
 49
6.25
 49
-1.25
 49
1.25
 49
-1.25
  0
LTYPE
  2
CENTER2
 70
    64
  3
----------  --  ----------  --  
 72
    65
 73
     4
 40
20.0
 49
12.5
 49
-2.5
 49
2.5
 49
-2.5
  0
LTYPE
  2
PHANTOM1
 70
    64
  3
--- - - --- - - --- - - --- - - 
 72
    65
 73
     6
 40
10.0
 49
3.25
 49
-1.25
 49
1.25
 49
-1.25
 49
1.25
 49
-1.25
  0
LTYPE
  2
PHANTOM2
 70
    64
  3
--------  -  -  --------  -  -  
 72
    65
 73
     6
 40
20.0
 49
10.0
 49
-2.5
 49
1.25
 49
-2.5
 49
1.25
 49
-2.5
  0
LTYPE
  2
DOT
 70
    64
  3
-   -   -   -   -   -   -   -   
 72
    65
 73
     2
 40
2.5
 49
0.625
 49
-1.875
  0
LTYPE
  2
DUMMY
 70
    64
  3
ダミー
 72
    65
 73
     0
 40
0.0
  0
LTYPE
  2
RAND1
 70
    64
  3
ランダム線1
 72
    65
 73
     4
 40
10.0
 49
1.0
 49
-2.0
 49
3.0
 49
-4.0
  0
LTYPE
  2
RAND2
 70
    64
  3
ランダム線2
 72
    65
 73
     4
 40
14.0
 49
2.0
 49
-3.0
 49
4.0
 49
-5.0
  0
LTYPE
  2
RAND3
 70
    64
  3
ランダム線3
 72
    65
 73
     4
 40
18.0
 49
3.0
 49
-4.0
 49
5.0
 49
-6.0
  0
LTYPE
  2
RAND4
 70
    64
  3
ランダム線4
 72
    65
 73
     4
 40
22.0
 49
4.0
 49
-5.0
 49
6.0
 49
-7.0
  0
LTYPE
  2
RAND5
 70
    64
  3
ランダム線5
 72
    65
 73
     4
 40
26.0
 49
5.0
 49
-6.0
 49
7.0
 49
-8.0
  0
LTYPE
  2
LONG1
 70
    64
  3
----------  --  ----------  --  
 72
    65
 73
     4
 40
40.0
 49
32.5
 49
-2.5
 49
2.5
 49
-2.5
  0
LTYPE
  2
LONG2
 70
    64
  3
--------  -  -  --------  -  -  
 72
    65
 73
     6
 40
40.0
 49
30.0
 49
-2.5
 49
1.25
 49
-2.5
 49
1.25
 49
-2.5
  0
LTYPE
  2
LONG3
 70
    64
  3
+++++++++++++++..+++++++++++++++
 72
    65
 73
     2
 40
40.0
 49
37.5
 49
-2.5
  0
LTYPE
  2
LONG4
 70
    64
  3
+++++++++++++++..+++++++++++++++
 72
    65
 73
     2
 40
80.0
 49
75.0
 49
-5.0
  0
LTYPE
  2
LONG5
 70
    64
  3
----------  --  ----------  --  
 72
    65
 73
     4
 40
60.0
 49
37.5
 49
-7.5
 49
7.5
 49
-7.5
  0
LTYPE
  2
dashed
 70
   64
  3
-------   -------------   ------
 72
   65
 73
    2
 40
7.5
 49
6
 49
-1.5
  0
LTYPE
  2
dashed_spaced
 70
   64
  3
----        --------        ----
 72
   65
 73
    2
 40
12
 49
6
 49
-6
  0
LTYPE
  2
long_dashed_dotted
 70
   64
  3
------------- --- --------------
 72
   65
 73
    4
 40
15.25
 49
12
 49
-1.5
 49
0.25
 49
-1.5
  0
LTYPE
  2
long_dashed_double-dotted
 70
   64
  3
----------- --- --- ------------
 72
   65
 73
    6
 40
17
 49
12
 49
-1.5
 49
0.25
 49
-1.5
 49
0.25
 49
-1.5
  0
LTYPE
  2
long_dashed_triplicate-dotted
 70
   64
  3
--------- --- --- --- ----------
 72
   65
 73
    8
 40
18.75
 49
12
 49
-1.5
 49
0.25
 49
-1.5
 49
0.25
 49
-1.5
 49
0.25
 49
-1.5
  0
LTYPE
  2
dotted
 70
   64
  3
   -       -       -       -    
 72
   65
 73
    2
 40
1.75
 49
0.25
 49
-1.5
  0
LTYPE
  2
chain
 70
   64
  3
-------------- -- --------------
 72
   65
 73
    4
 40
18.5
 49
12
 49
-1.5
 49
3.5
 49
-1.5
  0
LTYPE
  2
chain_double_dash
 70
   64
  3
------------ -- -- -------------
 72
   65
 73
    6
 40
23.5
 49
12
 49
-1.5
 49
3.5
 49
-1.5
 49
3.5
 49
-1.5
  0
LTYPE
  2
dashed_dotted
 70
   64
  3
-----------     -     ----------
 72
   65
 73
    4
 40
9.25
 49
6
 49
-1.5
 49
0.25
 49
-1.5
  0
LTYPE
  2
double-dashed_dotted
 70
   64
  3
------   -----------   -   -----
 72
   65
 73
    6
 40
16.75
 49
6
 49
-1.5
 49
6
 49
-1.5
 49
0.25
 49
-1.5
  0
LTYPE
  2
dashed_double-dotted
 70
   64
  3
---------    -    -    ---------
 72
   65
 73
    6
 40
11
 49
6
 49
-1.5
 49
0.25
 49
-1.5
 49
0.25
 49
-1.5
  0
LTYPE
  2
double-dashed_double-dotted
 70
   64
  3
-----   ---------   -   -   ----
 72
   65
 73
    8
 40
18.5
 49
6
 49
-1.5
 49
6
 49
-1.5
 49
0.25
 49
-1.5
 49
0.25
 49
-1.5
  0
LTYPE
  2
dashed_triplicate-dotted
 70
   64
  3
-------    -    -    -    ------
 72
   65
 73
    8
 40
12.75
 49
6
 49
-1.5
 49
0.25
 49
-1.5
 49
0.25
 49
-1.5
 49
0.25
 49
-1.5
  0
LTYPE
  2
double-dashed_triplicate-dotted
 70
   64
  3
-----  ---------  -  -  -  -----
 72
   65
 73
   10
 40
20.25
 49
6
 49
-1.5
 49
6
 49
-1.5
 49
0.25
 49
-1.5
 49
0.25
 49
-1.5
 49
0.25
 49
-1.5
  0
LTYPE
  2
undefined
 70
   64
  3
--------------------------------
 72
   65
 73
    0
 40
0
  0
LTYPE
  2
Amconstr
 70
   64
  3
-------- --------------- -------
 72
   65
 73
    2
 40
9999.0100000000002
 49
9999
 49
-0.01
  0
LTYPE
  2
AM_ISO08W050x2
 70
   64
  3
-----------   -----   ----------
 72
   65
 73
    4
 40
9
 49
6
 49
-0.75
 49
1.5
 49
-0.75
  0
LTYPE
  2
AM_ISO02W050x2
 70
   64
  3
-------   -------------   ------
 72
   65
 73
    2
 40
3.75
 49
3
 49
-0.75
  0
LTYPE
  2
Amzigzag
 70
   64
  3
-               -               
 72
   65
 73
    2
 40
11.000099999999999
 49
0.0001
 49
-11
  0
LTYPE
  2
HIDDEN
 70
   64
  3
------     -----------     -----
 72
   65
 73
    2
 40
0.375
 49
0.25
 49
-0.125
  0
LTYPE
  2
CENTER
 70
   64
  3
----------    ----    ----------
 72
   65
 73
    4
 40
2
 49
1.25
 49
-0.25
 49
0.25
 49
-0.25
  0
LTYPE
  2
PHANTOM2_23
 70
   64
  3
---------   ---   ---   --------
 72
   65
 73
    6
 40
1.25
 49
0.625
 49
-0.125
 49
0.125
 49
-0.125
 49
0.125
 49
-0.125
  0
LTYPE
  2
CENTER2_24
 70
   64
  3
----------    ----    ----------
 72
   65
 73
    4
 40
1.125
 49
0.75
 49
-0.125
 49
0.125
 49
-0.125
  0
LTYPE
  2
HIDDEN2
 70
   64
  3
------     -----------     -----
 72
   65
 73
    2
 40
0.1875
 49
0.125
 49
-0.0625
  0
LTYPE
  2
Amzigzag2
 70
   64
  3
-               -               
 72
   65
 73
    2
 40
0.4401000000000001
 49
0.0001
 49
-0.4400000000000001
  0
LTYPE
  2
ACANSTGB
 70
   64
  3
------    ----    ----    ------
 72
   65
 73
    6
 40
0.3543307086599999
 49
0.15748031496
 49
-0.03937007874
 49
0.03937007874
 49
-0.03937007874
 49
0.03937007874
 49
-0.03937007874
  0
LTYPE
  2
ACANSTGL
 70
   64
  3
------     -----------     -----
 72
   65
 73
    2
 40
0.1181102362199999
 49
0.07874015748
 49
-0.03937007874
  0
LTYPE
  2
ACISOWELD
 70
   64
  3
------     -----------     -----
 72
   65
 73
    2
 40
3
 49
2
 49
-1
  0
LTYPE
  2
ACISOTGB
 70
   64
  3
------    ----    ----    ------
 72
   65
 73
    6
 40
9
 49
4
 49
-1
 49
1
 49
-1
 49
1
 49
-1
  0
LTYPE
  2
gen3
 70
   64
  3
------    ------------    ------
 72
   65
 73
    2
 40
6.25
 49
4.75
 49
-1.5
  0
LTYPE
  2
gen7
 70
   64
  3
------------   --   ------------
 72
   65
 73
    4
 40
13.75
 49
9.75
 49
-1.5
 49
1
 49
-1.5
  0
ENDTAB
  0
TABLE
  2
STYLE
  5
3
100
AcDbSymbolTable
 70
     1
  0
STYLE
  5
10
100
AcDbSymbolTableRecord
100
AcDbTextStyleTableRecord
  2
STANDARD
 70
     0
 40
0.0
 41
1.0
 50
0.0
 71
     0
 42
0.2
  3
txt
  4
bigfont.shx
  0
STYLE
  5
26
100
AcDbSymbolTableRecord
100
AcDbTextStyleTableRecord
  2
TATEGAKI
 70
    68
 40
0.0
 41
1.0
 50
0.0
 71
     0
 42
1.0
  3
txt
  4
bigfont.shx
  0
ENDTAB
  0
TABLE
  2
LAYER
 70
    6
  0
LAYER
  2
_0-0_DRILL
 70
   64
 62
    7
  6
CONTINUOUS
  0
LAYER
  2
_0-2_Defpoints
 70
   64
 62
    7
  6
CONTINUOUS
  0
LAYER
  2
_0-6_Drill_List
 70
   64
 62
    7
  6
CONTINUOUS
  0
LAYER
  2
_0-8_Dim
 70
   64
 62
    7
  6
CONTINUOUS
  0
LAYER
  2
_0-a_Defpoint2
 70
   64
 62
    7
  6
CONTINUOUS
  0
LAYER
  2
ADD_LINE
 70
   64
 62
    7
  6
CONTINUOUS
  0
ENDTAB
  0
ENDSEC
  0
SECTION
  2
BLOCKS
  0
ENDSEC
  0
SECTION
  2
ENTITIES
  0
TEXT
  8
_0-6_Drill_List
 62
    7
 10
219.0691056910569
 20
128.17073170731708
 40
3
 41
1
 50
0
  1
 ^m
  0
TEXT
  8
_0-6_Drill_List
 62
    7
 10
219.0691056910569
 20
123.17073170731707
 40
3
 41
1
 50
0
  1
No, Dia,   Qty, Remark
  0
TEXT
  8
_0-6_Drill_List
 62
    7
 10
219.0691056910569
 20
118.17073170731707
 40
3
 41
1
 50
0
  1
1, φ6.5,  1,     -
  0
TEXT
  8
_0-6_Drill_List
 62
    7
 10
219.0691056910569
 20
113.17073170731707
 40
3
 41
1
 50
0
  1
2, φ3.2,  1,     -
  0
TEXT
  8
_0-6_Drill_List
 62
    7
 10
219.0691056910569
 20
108.17073170731707
 40
3
 41
1
 50
0
  1
3, φ11,   1,     -
  0
TEXT
  8
_0-6_Drill_List
 62
    7
 10
219.0691056910569
 20
103.17073170731707
 40
3
 41
1
 50
0
  1
4, φ8,    2,     -
  0
TEXT
  8
_0-6_Drill_List
 62
    7
 10
219.0691056910569
 20
98.170731707317074
 40
3
 41
1
 50
0
  1
5, φ2.8,  4,     -
  0
TEXT
  8
_0-6_Drill_List
 62
    7
 10
219.0691056910569
 20
93.170731707317074
 40
3
 41
1
 50
0
  1
6, φ9.6D, 2, BNC Panch
  0
LINE
  8
_0-8_Dim
  6
CENTER1
 62
    4
 10
166.3936261704041
 20
138.98729261106768
 11
181.2022829164797
 21
138.98729261106768
  0
LINE
  8
_0-8_Dim
  6
CENTER1
 62
    4
 10
173.71474299341178
 20
147.20095026877248
 11
173.71474299341178
 21
132.79549952320883
  0
LINE
  8
_0-8_Dim
  6
CENTER1
 62
    4
 10
100.3936261704041
 20
138.98729261106768
 11
115.20228291647967
 21
138.98729261106768
  0
LINE
  8
_0-8_Dim
  6
CENTER1
 62
    4
 10
107.71474299341178
 20
147.20095026877248
 11
107.71474299341178
 21
132.79549952320883
  0
LINE
  8
_0-8_Dim
  6
CENTER1
 62
    4
 10
140.71474299341184
 20
156.80539451453216
 11
140.71474299341184
 21
74.611130984364606
  0
LINE
  8
_0-8_Dim
  6
CENTER1
 62
    4
 10
82.967556729679756
 20
116.98729261106767
 11
198.23067512198471
 21
116.98729261106767
  0
LINE
  8
_0-8_Dim
  6
CENTER1
 62
    4
 10
169.71474299341181
 20
110.14311630719613
 11
169.71474299341181
 21
96.89487077797608
  0
LINE
  8
_0-8_Dim
  6
CENTER1
 62
    4
 10
111.71474299341178
 20
110.14311630719613
 11
111.71474299341178
 21
96.89487077797608
  0
LINE
  8
_0-8_Dim
  6
CENTER1
 62
    4
 10
99.688472362613822
 20
102.98729261106775
 11
182.62282469932137
 21
102.98729261106775
  0
LINE
  8
_0-8_Dim
  6
CENTER1
 62
    4
 10
148.26981294203184
 20
129.48729261106782
 11
132.90724796991929
 21
129.48729261106782
  0
LINE
  8
_0-8_Dim
  6
CONTINUOUS
 62
    4
 10
151.22715755612841
 20
116.98729261106767
 11
151.22715755612841
 21
129.48729261106782
  0
LINE
  8
_0-8_Dim
  6
CONTINUOUS
 62
    4
 10
151.22715755612841
 20
116.98729261106767
 11
150.45070042082085
 21
119.88507008993488
  0
LINE
  8
_0-8_Dim
  6
CONTINUOUS
 62
    4
 10
151.22715755612841
 20
116.98729261106767
 11
152.00361469143595
 21
119.88507008993488
  0
LINE
  8
_0-8_Dim
  6
CONTINUOUS
 62
    4
 10
151.22715755612841
 20
129.48729261106782
 11
152.00361469143598
 21
126.58951513220061
  0
LINE
  8
_0-8_Dim
  6
CONTINUOUS
 62
    4
 10
151.22715755612841
 20
129.48729261106782
 11
150.45070042082085
 21
126.58951513220061
  0
LINE
  8
_0-8_Dim
  6
CONTINUOUS
 62
    4
 10
151.22715755612841
 20
116.98729261106767
 11
148.26981294203184
 21
116.98729261106767
  0
LINE
  8
_0-8_Dim
  6
CONTINUOUS
 62
    4
 10
151.22715755612841
 20
129.48729261106782
 11
148.26981294203184
 21
129.48729261106782
  0
TEXT
  8
_0-8_Dim
 62
    7
 10
150.72715755612841
 20
120.73729261106774
 40
2.5
 41
1
 50
90
  1
12.5
  0
LINE
  8
_0-8_Dim
  6
CENTER1
 62
    4
 10
148.26981294203184
 20
139.98729261106763
 11
134.1225685017072
 21
139.98729261106763
  0
LINE
  8
_0-8_Dim
  6
CONTINUOUS
 62
    4
 10
158.27928702051247
 20
116.98729261106767
 11
158.27928702051247
 21
139.98729261106763
  0
LINE
  8
_0-8_Dim
  6
CONTINUOUS
 62
    4
 10
158.27928702051247
 20
116.98729261106767
 11
157.50282988520493
 21
119.88507008993487
  0
LINE
  8
_0-8_Dim
  6
CONTINUOUS
 62
    4
 10
158.27928702051247
 20
116.98729261106767
 11
159.05574415582003
 21
119.88507008993487
  0
LINE
  8
_0-8_Dim
  6
CONTINUOUS
 62
    4
 10
158.27928702051247
 20
139.98729261106763
 11
159.05574415582003
 21
137.08951513220043
  0
LINE
  8
_0-8_Dim
  6
CONTINUOUS
 62
    4
 10
158.27928702051247
 20
139.98729261106763
 11
157.50282988520493
 21
137.08951513220043
  0
LINE
  8
_0-8_Dim
  6
CONTINUOUS
 62
    4
 10
158.27928702051247
 20
116.98729261106767
 11
148.26981294203184
 21
116.98729261106767
  0
LINE
  8
_0-8_Dim
  6
CONTINUOUS
 62
    4
 10
158.27928702051247
 20
139.98729261106763
 11
148.26981294203184
 21
139.98729261106763
  0
TEXT
  8
_0-8_Dim
 62
    7
 10
157.77928702051247
 20
127.23729261106765
 40
2.5
 41
1
 50
90
  1
23
  0
LINE
  8
_0-8_Dim
  6
CONTINUOUS
 62
    4
 10
127.33551457465793
 20
102.98729261106775
 11
127.33551457465793
 21
116.98729261106767
  0
LINE
  8
_0-8_Dim
  6
CONTINUOUS
 62
    4
 10
127.33551457465793
 20
102.98729261106775
 11
126.55905743935038
 21
105.88507008993495
  0
LINE
  8
_0-8_Dim
  6
CONTINUOUS
 62
    4
 10
127.33551457465793
 20
102.98729261106775
 11
128.1119717099655
 21
105.88507008993495
  0
LINE
  8
_0-8_Dim
  6
CONTINUOUS
 62
    4
 10
127.33551457465793
 20
116.98729261106767
 11
128.1119717099655
 21
114.08951513220046
  0
LINE
  8
_0-8_Dim
  6
CONTINUOUS
 62
    4
 10
127.33551457465793
 20
116.98729261106767
 11
126.55905743935038
 21
114.08951513220046
  0
TEXT
  8
_0-8_Dim
 62
    7
 10
126.83551457465793
 20
108.73729261106771
 40
2.5
 41
1
 50
90
  1
14
  0
LINE
  8
_0-8_Dim
  6
CONTINUOUS
 62
    4
 10
168.9147429934118
 20
128.39926630973627
 11
178.5147429934118
 21
128.39926630973627
  0
LINE
  8
_0-8_Dim
  6
CONTINUOUS
 62
    4
 10
168.9147429934118
 20
128.39926630973627
 11
171.812520472279
 21
129.17572344504384
  0
LINE
  8
_0-8_Dim
  6
CONTINUOUS
 62
    4
 10
168.9147429934118
 20
128.39926630973627
 11
171.812520472279
 21
127.6228091744287
  0
LINE
  8
_0-8_Dim
  6
CONTINUOUS
 62
    4
 10
178.5147429934118
 20
128.39926630973627
 11
175.6169655145446
 21
127.6228091744287
  0
LINE
  8
_0-8_Dim
  6
CONTINUOUS
 62
    4
 10
178.5147429934118
 20
128.39926630973627
 11
175.6169655145446
 21
129.17572344504384
  0
LINE
  8
_0-8_Dim
  6
CONTINUOUS
 62
    4
 10
168.9147429934118
 20
128.39926630973627
 11
168.9147429934118
 21
138.2788023002181
  0
LINE
  8
_0-8_Dim
  6
CONTINUOUS
 62
    4
 10
178.5147429934118
 20
128.39926630973627
 11
178.5147429934118
 21
138.2788023002181
  0
TEXT
  8
_0-8_Dim
 62
    7
 10
171.83974299341178
 20
128.89926630973627
 40
2.5
 41
1
 50
0
  1
9.6
  0
LINE
  8
_0-8_Dim
  6
CONTINUOUS
 62
    4
 10
102.9147429934118
 20
128.39926630973627
 11
112.5147429934118
 21
128.39926630973627
  0
LINE
  8
_0-8_Dim
  6
CONTINUOUS
 62
    4
 10
102.9147429934118
 20
128.39926630973627
 11
105.812520472279
 21
129.17572344504384
  0
LINE
  8
_0-8_Dim
  6
CONTINUOUS
 62
    4
 10
102.9147429934118
 20
128.39926630973627
 11
105.812520472279
 21
127.6228091744287
  0
LINE
  8
_0-8_Dim
  6
CONTINUOUS
 62
    4
 10
112.5147429934118
 20
128.39926630973627
 11
109.6169655145446
 21
127.6228091744287
  0
LINE
  8
_0-8_Dim
  6
CONTINUOUS
 62
    4
 10
112.5147429934118
 20
128.39926630973627
 11
109.6169655145446
 21
129.17572344504384
  0
LINE
  8
_0-8_Dim
  6
CONTINUOUS
 62
    4
 10
102.9147429934118
 20
128.39926630973627
 11
102.9147429934118
 21
138.2788023002181
  0
LINE
  8
_0-8_Dim
  6
CONTINUOUS
 62
    4
 10
112.5147429934118
 20
128.39926630973627
 11
112.5147429934118
 21
138.2788023002181
  0
TEXT
  8
_0-8_Dim
 62
    7
 10
105.8397429934118
 20
128.89926630973627
 40
2.5
 41
1
 50
0
  1
9.6
  0
LINE
  8
_0-8_Dim
  6
CONTINUOUS
 62
    4
 10
118.80933967876264
 20
134.1872926110677
 11
118.80933967876264
 21
142.98729261106774
  0
LINE
  8
_0-8_Dim
  6
CONTINUOUS
 62
    4
 10
118.80933967876264
 20
134.1872926110677
 11
118.03288254345508
 21
137.0850700899349
  0
LINE
  8
_0-8_Dim
  6
CONTINUOUS
 62
    4
 10
118.80933967876264
 20
134.1872926110677
 11
119.5857968140702
 21
137.0850700899349
  0
LINE
  8
_0-8_Dim
  6
CONTINUOUS
 62
    4
 10
118.80933967876264
 20
142.98729261106774
 11
119.5857968140702
 21
140.08951513220054
  0
LINE
  8
_0-8_Dim
  6
CONTINUOUS
 62
    4
 10
118.80933967876264
 20
142.98729261106774
 11
118.03288254345508
 21
140.08951513220054
  0
LINE
  8
_0-8_Dim
  6
CONTINUOUS
 62
    4
 10
118.80933967876264
 20
134.1872926110677
 11
108.65913146936347
 21
134.1872926110677
  0
LINE
  8
_0-8_Dim
  6
CONTINUOUS
 62
    4
 10
118.80933967876264
 20
142.98729261106774
 11
108.65913146936347
 21
142.98729261106774
  0
TEXT
  8
_0-8_Dim
 62
    7
 10
118.30933967876264
 20
136.71229261106773
 40
2.5
 41
1
 50
90
  1
8.8
  0
LINE
  8
_0-8_Dim
  6
CONTINUOUS
 62
    4
 10
184.71802498512789
 20
134.1872926110677
 11
184.71802498512789
 21
142.98729261106774
  0
LINE
  8
_0-8_Dim
  6
CONTINUOUS
 62
    4
 10
184.71802498512789
 20
134.1872926110677
 11
183.94156784982033
 21
137.0850700899349
  0
LINE
  8
_0-8_Dim
  6
CONTINUOUS
 62
    4
 10
184.71802498512789
 20
134.1872926110677
 11
185.49448212043546
 21
137.0850700899349
  0
LINE
  8
_0-8_Dim
  6
CONTINUOUS
 62
    4
 10
184.71802498512789
 20
142.98729261106774
 11
185.49448212043546
 21
140.08951513220054
  0
LINE
  8
_0-8_Dim
  6
CONTINUOUS
 62
    4
 10
184.71802498512789
 20
142.98729261106774
 11
183.94156784982033
 21
140.08951513220054
  0
LINE
  8
_0-8_Dim
  6
CONTINUOUS
 62
    4
 10
184.71802498512789
 20
134.1872926110677
 11
175.10916121356336
 21
134.1872926110677
  0
LINE
  8
_0-8_Dim
  6
CONTINUOUS
 62
    4
 10
184.71802498512789
 20
142.98729261106774
 11
175.10916121356336
 21
142.98729261106774
  0
TEXT
  8
_0-8_Dim
 62
    7
 10
184.21802498512789
 20
136.71229261106773
 40
2.5
 41
1
 50
90
  1
8.8
  0
LINE
  8
_0-8_Dim
  6
CONTINUOUS
 62
    4
 10
165.36496133254016
 20
116.98729261106767
 11
165.36496133254016
 21
138.98729261106768
  0
LINE
  8
_0-8_Dim
  6
CONTINUOUS
 62
    4
 10
165.36496133254016
 20
116.98729261106767
 11
164.58850419723259
 21
119.88507008993487
  0
LINE
  8
_0-8_Dim
  6
CONTINUOUS
 62
    4
 10
165.36496133254016
 20
116.98729261106767
 11
166.14141846784772
 21
119.88507008993487
  0
LINE
  8
_0-8_Dim
  6
CONTINUOUS
 62
    4
 10
165.36496133254016
 20
138.98729261106768
 11
166.14141846784772
 21
136.08951513220048
  0
LINE
  8
_0-8_Dim
  6
CONTINUOUS
 62
    4
 10
165.36496133254016
 20
138.98729261106768
 11
164.58850419723259
 21
136.08951513220048
  0
LINE
  8
_0-8_Dim
  6
CONTINUOUS
 62
    4
 10
165.36496133254016
 20
116.98729261106767
 11
166.3936261704041
 21
116.98729261106767
  0
LINE
  8
_0-8_Dim
  6
CONTINUOUS
 62
    4
 10
165.36496133254016
 20
138.98729261106768
 11
166.3936261704041
 21
138.98729261106768
  0
TEXT
  8
_0-8_Dim
 62
    7
 10
164.86496133254016
 20
126.73729261106768
 40
2.5
 41
1
 50
90
  1
22
  0
LINE
  8
_0-8_Dim
  6
CONTINUOUS
 62
    4
 10
98.91493158834028
 20
116.98729261106767
 11
98.91493158834028
 21
138.98729261106768
  0
LINE
  8
_0-8_Dim
  6
CONTINUOUS
 62
    4
 10
98.91493158834028
 20
116.98729261106767
 11
98.138474453032728
 21
119.88507008993488
  0
LINE
  8
_0-8_Dim
  6
CONTINUOUS
 62
    4
 10
98.91493158834028
 20
116.98729261106767
 11
99.691388723647833
 21
119.88507008993488
  0
LINE
  8
_0-8_Dim
  6
CONTINUOUS
 62
    4
 10
98.91493158834028
 20
138.98729261106768
 11
99.691388723647833
 21
136.08951513220048
  0
LINE
  8
_0-8_Dim
  6
CONTINUOUS
 62
    4
 10
98.91493158834028
 20
138.98729261106768
 11
98.138474453032728
 21
136.08951513220048
  0
LINE
  8
_0-8_Dim
  6
CONTINUOUS
 62
    4
 10
98.91493158834028
 20
116.98729261106767
 11
100.3936261704041
 21
116.98729261106767
  0
LINE
  8
_0-8_Dim
  6
CONTINUOUS
 62
    4
 10
98.91493158834028
 20
138.98729261106768
 11
100.3936261704041
 21
138.98729261106768
  0
TEXT
  8
_0-8_Dim
 62
    7
 10
98.41493158834028
 20
126.73729261106768
 40
2.5
 41
1
 50
90
  1
22
  0
LINE
  8
_0-8_Dim
  6
CONTINUOUS
 62
    4
 10
166.25064137827405
 20
100.98729261106775
 11
173.17884460854958
 21
104.98729261106775
  0
LINE
  8
_0-8_Dim
  6
CONTINUOUS
 62
    4
 10
173.17884460854958
 20
104.98729261106775
 11
180.10704783882508
 21
108.98729261106775
  0
LINE
  8
_0-8_Dim
  6
CONTINUOUS
 62
    4
 10
161.92051435935186
 20
98.487292611067758
 11
166.25064137827405
 21
100.98729261106775
  0
LINE
  8
_0-8_Dim
  6
CONTINUOUS
 62
    4
 10
166.25064137827405
 20
100.98729261106775
 11
164.12932103471442
 21
98.865972267508112
  0
LINE
  8
_0-8_Dim
  6
CONTINUOUS
 62
    4
 10
166.25064137827405
 20
100.98729261106775
 11
163.35286389940685
 21
100.21083547576019
  0
LINE
  8
_0-8_Dim
  6
CONTINUOUS
 62
    4
 10
173.17884460854958
 20
104.98729261106775
 11
175.30016495210921
 21
107.1086129546274
  0
LINE
  8
_0-8_Dim
  6
CONTINUOUS
 62
    4
 10
173.17884460854958
 20
104.98729261106775
 11
176.07662208741678
 21
105.76374974637532
  0
TEXT
  8
_0-8_Dim
 62
    7
 10
175.52692081990289
 20
106.92030531295998
 40
2.5
 41
1
 50
29.999999999999982
  1
2-φ8
  0
LINE
  8
_0-8_Dim
  6
CENTER1
 62
    4
 10
176.71474299341178
 20
105.39212770176482
 11
176.71474299341178
 21
105.1214554828475
  0
LINE
  8
_0-8_Dim
  6
CENTER1
 62
    4
 10
176.71474299341178
 20
105.1214554828475
 11
176.71474299341178
 21
96.89487077797608
  0
LINE
  8
_0-8_Dim
  6
CENTER1
 62
    4
 10
162.71474299341178
 20
105.39212770176482
 11
162.71474299341178
 21
96.89487077797608
  0
LINE
  8
_0-8_Dim
  6
CENTER1
 62
    4
 10
118.71474299341181
 20
105.39212770176482
 11
118.71474299341181
 21
96.89487077797608
  0
LINE
  8
_0-8_Dim
  6
CENTER1
 62
    4
 10
104.71474299341181
 20
105.39212770176482
 11
104.71474299341181
 21
96.89487077797608
  0
LINE
  8
_0-8_Dim
  6
CONTINUOUS
 62
    4
 10
175.50230742811356
 20
102.28729261106775
 11
177.92717855870998
 21
103.68729261106776
  0
LINE
  8
_0-8_Dim
  6
CONTINUOUS
 62
    4
 10
177.92717855870998
 20
103.68729261106776
 11
187.02044529844658
 21
108.93729261106776
  0
LINE
  8
_0-8_Dim
  6
CONTINUOUS
 62
    4
 10
171.17218040919135
 20
99.787292611067755
 11
175.50230742811356
 21
102.28729261106775
  0
LINE
  8
_0-8_Dim
  6
CONTINUOUS
 62
    4
 10
175.50230742811356
 20
102.28729261106775
 11
173.3809870845539
 21
100.16597226750812
  0
LINE
  8
_0-8_Dim
  6
CONTINUOUS
 62
    4
 10
175.50230742811356
 20
102.28729261106775
 11
172.60452994924634
 21
101.5108354757602
  0
LINE
  8
_0-8_Dim
  6
CONTINUOUS
 62
    4
 10
177.92717855870998
 20
103.68729261106776
 11
180.04849890226964
 21
105.8086129546274
  0
LINE
  8
_0-8_Dim
  6
CONTINUOUS
 62
    4
 10
177.92717855870998
 20
103.68729261106776
 11
180.82495603757718
 21
104.46374974637531
  0
TEXT
  8
_0-8_Dim
 62
    7
 10
180.27525477006329
 20
105.62030531295997
 40
2.5
 41
1
 50
29.999999999999971
  1
4-φ2.8
  0
LINE
  8
_0-8_Dim
  6
CONTINUOUS
 62
    4
 10
137.90016043111239
 20
138.36229261106763
 11
143.52932555571126
 21
141.61229261106763
  0
TEXT
  8
_0-8_Dim
 62
    7
 10
146.95993352179513
 20
144.17030531295986
 40
2.5
 41
1
 50
30
  1
φ6.5
  0
LINE
  8
_0-8_Dim
  6
CONTINUOUS
 62
    4
 10
143.52932555571126
 20
141.61229261106763
 11
152.62259229544787
 21
146.86229261106763
  0
LINE
  8
_0-8_Dim
  6
CONTINUOUS
 62
    4
 10
133.57003341219021
 20
135.86229261106763
 11
137.90016043111239
 21
138.36229261106763
  0
LINE
  8
_0-8_Dim
  6
CONTINUOUS
 62
    4
 10
137.90016043111239
 20
138.36229261106763
 11
135.77884008755276
 21
136.24097226750799
  0
LINE
  8
_0-8_Dim
  6
CONTINUOUS
 62
    4
 10
137.90016043111239
 20
138.36229261106763
 11
135.00238295224519
 21
137.58583547576009
  0
LINE
  8
_0-8_Dim
  6
CONTINUOUS
 62
    4
 10
143.52932555571126
 20
141.61229261106763
 11
145.65064589927089
 21
143.73361295462729
  0
LINE
  8
_0-8_Dim
  6
CONTINUOUS
 62
    4
 10
143.52932555571126
 20
141.61229261106763
 11
146.42710303457846
 21
142.38874974637519
  0
LINE
  8
_0-8_Dim
  6
CONTINUOUS
 62
    4
 10
139.32910234735672
 20
128.68729261106781
 11
142.10038363946694
 21
130.28729261106781
  0
TEXT
  8
_0-8_Dim
 62
    7
 10
145.5309916055508
 20
132.84530531296002
 40
2.5
 41
1
 50
30.000000000000003
  1
φ3.2
  0
LINE
  8
_0-8_Dim
  6
CONTINUOUS
 62
    4
 10
142.10038363946694
 20
130.28729261106781
 11
151.19365037920354
 21
135.53729261106781
  0
LINE
  8
_0-8_Dim
  6
CONTINUOUS
 62
    4
 10
134.99897532843453
 20
126.18729261106781
 11
139.32910234735672
 21
128.68729261106781
  0
LINE
  8
_0-8_Dim
  6
CONTINUOUS
 62
    4
 10
139.32910234735672
 20
128.68729261106781
 11
137.20778200379709
 21
126.56597226750817
  0
LINE
  8
_0-8_Dim
  6
CONTINUOUS
 62
    4
 10
139.32910234735672
 20
128.68729261106781
 11
136.43132486848952
 21
127.91083547576025
  0
LINE
  8
_0-8_Dim
  6
CONTINUOUS
 62
    4
 10
142.10038363946694
 20
130.28729261106781
 11
144.22170398302657
 21
132.40861295462747
  0
LINE
  8
_0-8_Dim
  6
CONTINUOUS
 62
    4
 10
142.10038363946694
 20
130.28729261106781
 11
144.99816111833413
 21
131.06374974637537
  0
LINE
  8
_0-8_Dim
  6
CONTINUOUS
 62
    4
 10
135.95160327259742
 20
114.23729261106767
 11
145.47788271422624
 21
119.73729261106767
  0
TEXT
  8
_0-8_Dim
 62
    7
 10
138.29967948395074
 20
116.17030531295989
 40
2.5
 41
1
 50
30
  1
φ11
  0
LINE
  8
_0-8_Dim
  6
CONTINUOUS
 62
    4
 10
135.95160327259742
 20
114.23729261106767
 11
138.07292361615705
 21
116.35861295462731
  0
LINE
  8
_0-8_Dim
  6
CONTINUOUS
 62
    4
 10
135.95160327259742
 20
114.23729261106767
 11
138.84938075146462
 21
115.01374974637523
  0
LINE
  8
_0-8_Dim
  6
CONTINUOUS
 62
    4
 10
145.47788271422624
 20
119.73729261106767
 11
143.3565623706666
 21
117.61597226750802
  0
LINE
  8
_0-8_Dim
  6
CONTINUOUS
 62
    4
 10
145.47788271422624
 20
119.73729261106767
 11
142.58010523535904
 21
118.96083547576012
  0
LINE
  8
_0-8_Dim
  6
CONTINUOUS
 62
    4
 10
90.714742993411832
 20
73.447022275100806
 11
140.71474299341181
 21
73.447022275100806
  0
LINE
  8
_0-8_Dim
  6
CONTINUOUS
 62
    4
 10
90.714742993411832
 20
73.447022275100806
 11
93.612520472279044
 21
74.223479410408373
  0
LINE
  8
_0-8_Dim
  6
CONTINUOUS
 62
    4
 10
90.714742993411832
 20
73.447022275100806
 11
93.612520472279044
 21
72.670565139793239
  0
LINE
  8
_0-8_Dim
  6
CONTINUOUS
 62
    4
 10
140.71474299341181
 20
73.447022275100806
 11
137.81696551454461
 21
72.670565139793239
  0
LINE
  8
_0-8_Dim
  6
CONTINUOUS
 62
    4
 10
140.71474299341181
 20
73.447022275100806
 11
137.81696551454461
 21
74.223479410408373
  0
LINE
  8
_0-8_Dim
  6
CONTINUOUS
 62
    4
 10
90.714742993411832
 20
73.447022275100806
 11
90.714742993411832
 21
83.515103443717364
  0
LINE
  8
_0-8_Dim
  6
CONTINUOUS
 62
    4
 10
140.71474299341181
 20
73.447022275100806
 11
140.71474299341181
 21
83.515103443717364
  0
TEXT
  8
_0-8_Dim
 62
    7
 10
114.46474299341183
 20
73.947022275100806
 40
2.5
 41
1
 50
0
  1
50
  0
LINE
  8
_0-8_Dim
  6
CONTINUOUS
 62
    4
 10
140.71474299341184
 20
73.447022275100806
 11
190.71474299341181
 21
73.447022275100806
  0
LINE
  8
_0-8_Dim
  6
CONTINUOUS
 62
    4
 10
140.71474299341184
 20
73.447022275100806
 11
143.61252047227904
 21
74.223479410408373
  0
LINE
  8
_0-8_Dim
  6
CONTINUOUS
 62
    4
 10
140.71474299341184
 20
73.447022275100806
 11
143.61252047227904
 21
72.670565139793239
  0
LINE
  8
_0-8_Dim
  6
CONTINUOUS
 62
    4
 10
190.71474299341181
 20
73.447022275100806
 11
187.81696551454461
 21
72.670565139793239
  0
LINE
  8
_0-8_Dim
  6
CONTINUOUS
 62
    4
 10
190.71474299341181
 20
73.447022275100806
 11
187.81696551454461
 21
74.223479410408373
  0
LINE
  8
_0-8_Dim
  6
CONTINUOUS
 62
    4
 10
140.71474299341184
 20
73.447022275100806
 11
140.71474299341184
 21
83.515103443717364
  0
LINE
  8
_0-8_Dim
  6
CONTINUOUS
 62
    4
 10
190.71474299341181
 20
73.447022275100806
 11
190.71474299341181
 21
83.515103443717364
  0
TEXT
  8
_0-8_Dim
 62
    7
 10
164.46474299341184
 20
73.947022275100806
 40
2.5
 41
1
 50
0
  1
50
  0
LINE
  8
_0-8_Dim
  6
CONTINUOUS
 62
    4
 10
200.89242514376363
 20
81.987292611067672
 11
200.89242514376363
 21
116.98729261106765
  0
LINE
  8
_0-8_Dim
  6
CONTINUOUS
 62
    4
 10
200.89242514376363
 20
81.987292611067672
 11
200.11596800845606
 21
84.88507008993487
  0
LINE
  8
_0-8_Dim
  6
CONTINUOUS
 62
    4
 10
200.89242514376363
 20
81.987292611067672
 11
201.66888227907116
 21
84.88507008993487
  0
LINE
  8
_0-8_Dim
  6
CONTINUOUS
 62
    4
 10
200.89242514376363
 20
116.98729261106765
 11
201.66888227907116
 21
114.08951513220046
  0
LINE
  8
_0-8_Dim
  6
CONTINUOUS
 62
    4
 10
200.89242514376363
 20
116.98729261106765
 11
200.11596800845606
 21
114.08951513220046
  0
LINE
  8
_0-8_Dim
  6
CONTINUOUS
 62
    4
 10
200.89242514376363
 20
81.987292611067672
 11
189.88046136558926
 21
81.987292611067672
  0
LINE
  8
_0-8_Dim
  6
CONTINUOUS
 62
    4
 10
200.89242514376363
 20
116.98729261106765
 11
189.88046136558926
 21
116.98729261106765
  0
TEXT
  8
_0-8_Dim
 62
    7
 10
200.39242514376363
 20
98.237292611067672
 40
2.5
 41
1
 50
90
  1
35
  0
LINE
  8
_0-8_Dim
  6
CONTINUOUS
 62
    4
 10
200.89242514376363
 20
116.98729261106767
 11
200.89242514376363
 21
151.98729261106768
  0
LINE
  8
_0-8_Dim
  6
CONTINUOUS
 62
    4
 10
200.89242514376363
 20
116.98729261106767
 11
200.11596800845606
 21
119.88507008993487
  0
LINE
  8
_0-8_Dim
  6
CONTINUOUS
 62
    4
 10
200.89242514376363
 20
116.98729261106767
 11
201.66888227907116
 21
119.88507008993487
  0
LINE
  8
_0-8_Dim
  6
CONTINUOUS
 62
    4
 10
200.89242514376363
 20
151.98729261106768
 11
201.66888227907119
 21
149.08951513220046
  0
LINE
  8
_0-8_Dim
  6
CONTINUOUS
 62
    4
 10
200.89242514376363
 20
151.98729261106768
 11
200.11596800845606
 21
149.08951513220046
  0
LINE
  8
_0-8_Dim
  6
CONTINUOUS
 62
    4
 10
200.89242514376363
 20
116.98729261106767
 11
189.88046136558926
 21
116.98729261106767
  0
LINE
  8
_0-8_Dim
  6
CONTINUOUS
 62
    4
 10
200.89242514376363
 20
151.98729261106768
 11
189.88046136558926
 21
151.98729261106768
  0
TEXT
  8
_0-8_Dim
 62
    7
 10
200.39242514376363
 20
133.23729261106765
 40
2.5
 41
1
 50
90
  1
35
  0
LINE
  8
_0-8_Dim
  6
CONTINUOUS
 62
    4
 10
104.71474299341181
 20
89.63414634146342
 11
111.71474299341178
 21
89.63414634146342
  0
LINE
  8
_0-8_Dim
  6
CONTINUOUS
 62
    4
 10
104.71474299341181
 20
89.63414634146342
 11
107.61252047227903
 21
90.410603476770972
  0
LINE
  8
_0-8_Dim
  6
CONTINUOUS
 62
    4
 10
104.71474299341181
 20
89.63414634146342
 11
107.61252047227903
 21
88.857689206155853
  0
LINE
  8
_0-8_Dim
  6
CONTINUOUS
 62
    4
 10
111.71474299341178
 20
89.63414634146342
 11
108.81696551454457
 21
88.857689206155853
  0
LINE
  8
_0-8_Dim
  6
CONTINUOUS
 62
    4
 10
111.71474299341178
 20
89.63414634146342
 11
108.81696551454457
 21
90.410603476770972
  0
LINE
  8
_0-8_Dim
  6
CONTINUOUS
 62
    4
 10
104.71474299341181
 20
89.63414634146342
 11
104.71474299341181
 21
96.89487077797608
  0
LINE
  8
_0-8_Dim
  6
CONTINUOUS
 62
    4
 10
111.71474299341178
 20
89.63414634146342
 11
111.71474299341178
 21
96.89487077797608
  0
TEXT
  8
_0-8_Dim
 62
    7
 10
107.5897429934118
 20
90.13414634146342
 40
2.5
 41
1
 50
0
  1
7
  0
LINE
  8
_0-8_Dim
  6
CONTINUOUS
 62
    4
 10
111.71474299341178
 20
89.63414634146342
 11
118.71474299341181
 21
89.63414634146342
  0
LINE
  8
_0-8_Dim
  6
CONTINUOUS
 62
    4
 10
111.71474299341178
 20
89.63414634146342
 11
114.61252047227898
 21
90.410603476770972
  0
LINE
  8
_0-8_Dim
  6
CONTINUOUS
 62
    4
 10
111.71474299341178
 20
89.63414634146342
 11
114.61252047227898
 21
88.857689206155853
  0
LINE
  8
_0-8_Dim
  6
CONTINUOUS
 62
    4
 10
118.71474299341181
 20
89.63414634146342
 11
115.8169655145446
 21
88.857689206155853
  0
LINE
  8
_0-8_Dim
  6
CONTINUOUS
 62
    4
 10
118.71474299341181
 20
89.63414634146342
 11
115.8169655145446
 21
90.410603476770972
  0
LINE
  8
_0-8_Dim
  6
CONTINUOUS
 62
    4
 10
118.71474299341181
 20
89.63414634146342
 11
118.71474299341181
 21
96.89487077797608
  0
TEXT
  8
_0-8_Dim
 62
    7
 10
114.58974299341178
 20
90.13414634146342
 40
2.5
 41
1
 50
0
  1
7
  0
LINE
  8
_0-8_Dim
  6
CONTINUOUS
 62
    4
 10
162.71474299341178
 20
89.63414634146342
 11
169.71474299341181
 21
89.63414634146342
  0
LINE
  8
_0-8_Dim
  6
CONTINUOUS
 62
    4
 10
162.71474299341178
 20
89.63414634146342
 11
165.61252047227898
 21
90.410603476770972
  0
LINE
  8
_0-8_Dim
  6
CONTINUOUS
 62
    4
 10
162.71474299341178
 20
89.63414634146342
 11
165.61252047227898
 21
88.857689206155853
  0
LINE
  8
_0-8_Dim
  6
CONTINUOUS
 62
    4
 10
169.71474299341181
 20
89.63414634146342
 11
166.81696551454461
 21
88.857689206155853
  0
LINE
  8
_0-8_Dim
  6
CONTINUOUS
 62
    4
 10
169.71474299341181
 20
89.63414634146342
 11
166.81696551454461
 21
90.410603476770972
  0
LINE
  8
_0-8_Dim
  6
CONTINUOUS
 62
    4
 10
162.71474299341178
 20
89.63414634146342
 11
162.71474299341178
 21
96.89487077797608
  0
LINE
  8
_0-8_Dim
  6
CONTINUOUS
 62
    4
 10
169.71474299341181
 20
89.63414634146342
 11
169.71474299341181
 21
96.89487077797608
  0
TEXT
  8
_0-8_Dim
 62
    7
 10
165.58974299341178
 20
90.13414634146342
 40
2.5
 41
1
 50
0
  1
7
  0
LINE
  8
_0-8_Dim
  6
CONTINUOUS
 62
    4
 10
169.71474299341181
 20
89.63414634146342
 11
176.71474299341178
 21
89.63414634146342
  0
LINE
  8
_0-8_Dim
  6
CONTINUOUS
 62
    4
 10
169.71474299341181
 20
89.63414634146342
 11
172.61252047227901
 21
90.410603476770972
  0
LINE
  8
_0-8_Dim
  6
CONTINUOUS
 62
    4
 10
169.71474299341181
 20
89.63414634146342
 11
172.61252047227901
 21
88.857689206155853
  0
LINE
  8
_0-8_Dim
  6
CONTINUOUS
 62
    4
 10
176.71474299341178
 20
89.63414634146342
 11
173.81696551454456
 21
88.857689206155853
  0
LINE
  8
_0-8_Dim
  6
CONTINUOUS
 62
    4
 10
176.71474299341178
 20
89.63414634146342
 11
173.81696551454456
 21
90.410603476770972
  0
LINE
  8
_0-8_Dim
  6
CONTINUOUS
 62
    4
 10
176.71474299341178
 20
89.63414634146342
 11
176.71474299341178
 21
96.89487077797608
  0
TEXT
  8
_0-8_Dim
 62
    7
 10
172.58974299341178
 20
90.13414634146342
 40
2.5
 41
1
 50
0
  1
7
  0
ARC
  8
_0-2_Defpoints
  6
CONTINUOUS
 62
    3
 10
94.714742993411817
 20
147.98729261106774
 40
4
 50
90
 51
180
  0
LINE
  8
_0-2_Defpoints
  6
CONTINUOUS
 62
    3
 10
90.714742993411832
 20
147.98729261106774
 11
90.714742993411832
 21
85.987292611067587
  0
LINE
  8
_0-2_Defpoints
  6
CONTINUOUS
 62
    3
 10
94.714742993411817
 20
151.98729261106765
 11
186.71474299341176
 21
151.98729261106765
  0
ARC
  8
_0-2_Defpoints
  6
CONTINUOUS
 62
    3
 10
94.714742993411817
 20
85.987292611067587
 40
4
 50
180
 51
270
  0
LINE
  8
_0-2_Defpoints
  6
CONTINUOUS
 62
    3
 10
94.714742993411817
 20
81.987292611067672
 11
186.71474299341176
 21
81.987292611067672
  0
ARC
  8
_0-2_Defpoints
  6
CONTINUOUS
 62
    3
 10
186.71474299341176
 20
85.987292611067587
 40
4
 50
270
 51
0
  0
LINE
  8
_0-2_Defpoints
  6
CONTINUOUS
 62
    3
 10
190.71474299341181
 20
85.987292611067587
 11
190.71474299341181
 21
147.98729261106774
  0
ARC
  8
_0-2_Defpoints
  6
CONTINUOUS
 62
    3
 10
186.71474299341176
 20
147.98729261106774
 40
4
 50
0
 51
90
  0
ARC
  8
_0-0_DRILL
  6
CONTINUOUS
 62
    7
 10
107.71474299341178
 20
138.98729261106768
 40
4.7999999999999998
 50
123.55730976191949
 51
56.442690238080501
  0
LINE
  8
_0-0_DRILL
  6
CONTINUOUS
 62
    7
 10
110.36804282569605
 20
142.98729261106774
 11
105.06144316112761
 21
142.98729261106774
  0
CIRCLE
  8
_0-0_DRILL
  6
CONTINUOUS
 62
    7
 10
140.71474299341184
 20
139.98729261106763
 40
3.25
  0
CIRCLE
  8
_0-0_DRILL
  6
CONTINUOUS
 62
    7
 10
140.71474299341184
 20
129.48729261106782
 40
1.6
  0
ARC
  8
_0-0_DRILL
  6
CONTINUOUS
 62
    7
 10
173.71474299341178
 20
138.98729261106768
 40
4.7999999999999998
 50
123.55730976191949
 51
56.442690238080501
  0
LINE
  8
_0-0_DRILL
  6
CONTINUOUS
 62
    7
 10
176.36804282569607
 20
142.98729261106774
 11
171.06144316112755
 21
142.98729261106774
  0
CIRCLE
  8
_0-0_DRILL
  6
CONTINUOUS
 62
    7
 10
140.71474299341184
 20
116.98729261106767
 40
5.5
  0
CIRCLE
  8
_0-0_DRILL
  6
CONTINUOUS
 62
    7
 10
104.71474299341181
 20
102.98729261106775
 40
1.3999999999999999
  0
CIRCLE
  8
_0-0_DRILL
  6
CONTINUOUS
 62
    7
 10
111.71474299341178
 20
102.98729261106775
 40
4
  0
CIRCLE
  8
_0-0_DRILL
  6
CONTINUOUS
 62
    7
 10
118.71474299341181
 20
102.98729261106775
 40
1.3999999999999999
  0
CIRCLE
  8
_0-0_DRILL
  6
CONTINUOUS
 62
    7
 10
162.71474299341178
 20
102.98729261106775
 40
1.3999999999999999
  0
CIRCLE
  8
_0-0_DRILL
  6
CONTINUOUS
 62
    7
 10
169.71474299341181
 20
102.98729261106775
 40
4
  0
CIRCLE
  8
_0-0_DRILL
  6
CONTINUOUS
 62
    7
 10
176.71474299341178
 20
102.98729261106775
 40
1.3999999999999999
  0
LINE
  8
_0-a_Defpoint2
  6
CONTINUOUS
 62
    4
 10
210.80319254412057
 20
81.987292611067672
 11
210.80319254412057
 21
151.98729261106768
  0
LINE
  8
_0-a_Defpoint2
  6
CONTINUOUS
 62
    4
 10
210.80319254412057
 20
81.987292611067672
 11
210.02673540881301
 21
84.88507008993487
  0
LINE
  8
_0-a_Defpoint2
  6
CONTINUOUS
 62
    4
 10
210.80319254412057
 20
81.987292611067672
 11
211.57964967942811
 21
84.88507008993487
  0
LINE
  8
_0-a_Defpoint2
  6
CONTINUOUS
 62
    4
 10
210.80319254412057
 20
151.98729261106768
 11
211.57964967942814
 21
149.08951513220046
  0
LINE
  8
_0-a_Defpoint2
  6
CONTINUOUS
 62
    4
 10
210.80319254412057
 20
151.98729261106768
 11
210.02673540881301
 21
149.08951513220046
  0
TEXT
  8
_0-a_Defpoint2
 62
    7
 10
210.30319254412057
 20
115.73729261106767
 40
2.5
 41
1
 50
90
  1
70
  0
LINE
  8
_0-a_Defpoint2
  6
CONTINUOUS
 62
    4
 10
210.80319254412057
 20
151.98729261106768
 11
200.89242514376363
 21
151.98729261106768
  0
LINE
  8
_0-a_Defpoint2
  6
CONTINUOUS
 62
    4
 10
210.80319254412057
 20
81.987292611067672
 11
200.89242514376363
 21
81.987292611067672
  0
LINE
  8
_0-a_Defpoint2
  6
CONTINUOUS
 62
    4
 10
90.714742993411832
 20
64.794765020820932
 11
190.71474299341181
 21
64.794765020820932
  0
LINE
  8
_0-a_Defpoint2
  6
CONTINUOUS
 62
    4
 10
90.714742993411832
 20
64.794765020820932
 11
93.612520472279044
 21
65.571222156128499
  0
LINE
  8
_0-a_Defpoint2
  6
CONTINUOUS
 62
    4
 10
90.714742993411832
 20
64.794765020820932
 11
93.612520472279044
 21
64.01830788551338
  0
LINE
  8
_0-a_Defpoint2
  6
CONTINUOUS
 62
    4
 10
190.71474299341181
 20
64.794765020820932
 11
187.81696551454461
 21
64.01830788551338
  0
LINE
  8
_0-a_Defpoint2
  6
CONTINUOUS
 62
    4
 10
190.71474299341181
 20
64.794765020820932
 11
187.81696551454461
 21
65.571222156128499
  0
TEXT
  8
_0-a_Defpoint2
 62
    7
 10
138.83974299341181
 20
65.294765020820932
 40
2.5
 41
1
 50
0
  1
100
  0
LINE
  8
_0-a_Defpoint2
  6
CONTINUOUS
 62
    4
 10
90.714742993411832
 20
64.794765020820932
 11
90.714742993411832
 21
73.447022275100806
  0
LINE
  8
_0-a_Defpoint2
  6
CONTINUOUS
 62
    4
 10
190.71474299341181
 20
64.794765020820932
 11
190.71474299341181
 21
73.447022275100806
  0
TEXT
  8
_0-6_Drill_List
 62
    7
 10
217.36178861788619
 20
128.61788617886179
 40
3
 41
1
 50
0
  1
Drilling List
  0
TEXT
  8
_0-2_Defpoints
 62
    7
 10
91.304878048780494
 20
53.780487804878035
 40
5
 41
1
 50
0
  1
TD7-10-3B Base　Top View
  0
ENDSEC
  0
EOF
